<?xml version="1.0" standalone="no"?>
<!DOCTYPE svg PUBLIC "-//W3C//DTD SVG 20010904//EN"
 "http://www.w3.org/TR/2001/REC-SVG-20010904/DTD/svg10.dtd">
<svg version="1.0" xmlns="http://www.w3.org/2000/svg"
 width="200.000000pt" height="200.000000pt" viewBox="0 0 200.000000 200.000000"
 preserveAspectRatio="xMidYMid meet">

<g transform="translate(0.000000,200.000000) scale(0.100000,-0.100000)"
fill="#000000" stroke="none">
<path d="M85 1980 c-11 -4 -31 -20 -45 -35 l-25 -27 0 -919 0 -919 33 -32 32
-33 913 -2 c717 -2 917 0 937 10 13 7 35 28 47 46 l23 34 0 894 c0 979 3 928
-59 972 -29 21 -33 21 -933 20 -496 0 -912 -4 -923 -9z m1684 -148 c170 -106
90 -372 -111 -372 -185 0 -274 215 -144 345 71 70 169 81 255 27z m-793 -23
c248 -45 428 -302 386 -550 -29 -170 -150 -322 -299 -379 -24 -9 -44 -20 -45
-24 0 -7 221 -278 285 -350 52 -58 70 -103 65 -168 -3 -38 -11 -68 -25 -86
-51 -70 -141 -97 -219 -67 -48 18 -63 36 -439 493 l-140 171 -11 -48 c-15 -69
-48 -116 -98 -140 -84 -41 -183 -16 -233 60 l-28 43 -3 443 c-2 285 1 457 8
482 14 52 45 90 94 112 37 17 71 19 342 19 173 0 325 -5 360 -11z m726 -439
c21 -6 50 -22 66 -35 61 -51 60 -47 63 -550 2 -515 3 -508 -69 -563 -28 -21
-48 -27 -101 -30 -59 -3 -71 0 -109 25 -25 16 -51 44 -62 69 -19 38 -20 63
-20 494 0 439 1 455 21 497 22 45 54 73 104 91 39 14 62 14 107 2z m-1265
-835 c48 -20 71 -41 94 -87 63 -123 2 -265 -127 -297 -166 -42 -307 129 -235
284 45 99 165 143 268 100z"/>
<path d="M550 1305 l0 -175 150 0 c111 0 158 4 178 14 132 69 130 257 -2 317
-34 15 -66 19 -183 19 l-143 0 0 -175z"/>
</g>
</svg>
