<?xml version="1.0" standalone="no"?>
<!DOCTYPE svg PUBLIC "-//W3C//DTD SVG 20010904//EN"
 "http://www.w3.org/TR/2001/REC-SVG-20010904/DTD/svg10.dtd">
<svg version="1.0" xmlns="http://www.w3.org/2000/svg"
 width="238.000000pt" height="324.000000pt" viewBox="0 0 238.000000 324.000000"
 preserveAspectRatio="xMidYMid meet">

<g transform="translate(0.000000,324.000000) scale(0.100000,-0.100000)"
fill="#000000" stroke="none">
<path d="M315 2903 c-24 -637 -21 -952 9 -1122 56 -311 212 -534 512 -734 107
-71 351 -207 372 -207 19 0 184 85 297 153 362 218 531 440 596 782 28 145 34
432 20 889 -7 215 -14 401 -17 414 l-4 22 -889 0 -888 0 -8 -197z m1740 -10
c27 -586 22 -950 -14 -1130 -71 -345 -268 -570 -708 -804 l-117 -63 -115 60
c-233 120 -433 271 -536 405 -137 177 -195 369 -211 699 -6 127 10 812 22 928
l5 52 834 0 833 0 7 -147z"/>
<path d="M430 2981 c0 -5 9 -7 20 -4 20 5 20 0 20 -211 l0 -216 -25 0 c-23 0
-24 4 -28 63 l-3 62 -2 -67 -2 -68 805 0 805 0 -2 73 -2 72 -3 -67 c-4 -68 -4
-68 -33 -68 l-30 0 0 214 0 215 28 4 c15 2 -327 5 -760 6 -466 0 -788 -3 -788
-8z m89 -216 c0 -207 0 -215 -19 -215 -19 0 -20 8 -20 215 0 207 1 215 20 215
19 0 19 -8 19 -215z m61 148 c0 -55 -4 -71 -22 -90 -12 -13 -19 -25 -16 -29 3
-3 16 9 29 27 18 26 22 43 20 95 -2 59 -1 64 18 64 18 0 21 -6 21 -38 0 -21
-7 -49 -16 -62 -8 -14 4 -3 28 23 l44 48 81 -93 80 -94 -30 -38 c-28 -35 -30
-43 -28 -107 2 -68 2 -69 -23 -69 -23 0 -26 4 -26 37 0 23 7 45 20 58 20 21
19 55 -1 55 -13 0 -11 -18 2 -22 6 -2 -9 -26 -33 -52 l-44 -49 -82 92 c-45 51
-80 97 -76 103 4 5 6 55 5 109 l-2 99 25 0 c25 0 26 -2 26 -67z m100 54 c0 -8
-9 -22 -20 -32 -20 -18 -20 -17 -20 13 0 25 4 32 20 32 11 0 20 -6 20 -13z
m50 -19 c0 -30 0 -31 -20 -13 -11 10 -20 24 -20 32 0 7 9 13 20 13 16 0 20 -7
20 -32z m60 -35 l-1 -68 -24 28 c-18 20 -25 40 -25 68 0 35 3 39 25 39 24 0
25 -2 25 -67z m50 -30 l-1 -98 -19 24 c-16 18 -20 38 -20 97 0 67 2 74 20 74
19 0 20 -7 20 -97z m50 -118 c0 -208 -1 -215 -20 -215 -19 0 -20 7 -20 215 0
208 1 215 20 215 19 0 20 -7 20 -215z m50 0 c0 -208 -1 -215 -20 -215 -19 0
-20 7 -20 215 0 208 1 215 20 215 19 0 20 -7 20 -215z m60 0 l0 -215 -25 0
-25 0 0 215 0 215 25 0 25 0 0 -215z m50 168 c0 -31 -7 -59 -20 -78 l-20 -30
0 78 c0 70 2 77 20 77 17 0 20 -7 20 -47z m50 19 c0 -27 -15 -52 -32 -52 -4 0
-8 18 -8 40 0 33 3 40 20 40 15 0 20 -7 20 -28z m50 9 c0 -10 -7 -22 -16 -25
-23 -9 -24 -8 -24 19 0 18 5 25 20 25 13 0 20 -7 20 -19z m60 5 c0 -8 -10 -17
-22 -19 -13 -2 -3 -4 22 -4 25 -1 37 1 28 4 -25 6 -23 33 2 33 14 0 20 -7 20
-24 0 -18 7 -26 28 -31 66 -16 132 -99 132 -165 0 -30 -24 -100 -34 -100 -3 0
-3 19 0 43 7 51 -20 114 -60 140 -38 25 -41 20 -6 -9 46 -39 62 -76 57 -137
-3 -29 -8 -50 -13 -47 -4 3 -7 17 -5 32 3 37 -24 85 -59 103 -16 8 -31 15 -35
15 -3 0 -5 -56 -5 -125 0 -118 -1 -125 -20 -125 -19 0 -20 7 -20 124 0 110 2
125 18 129 9 3 0 5 -21 6 -46 1 -97 -19 -126 -50 -28 -30 -43 -86 -30 -110 17
-32 0 -21 -21 14 -11 17 -20 27 -20 21 0 -5 7 -19 15 -30 8 -10 15 -38 15 -61
0 -36 -3 -43 -20 -43 -19 0 -20 7 -19 123 1 74 6 134 13 152 16 37 77 92 111
101 18 4 25 13 25 30 0 19 5 24 25 24 15 0 25 -6 25 -14z m100 -12 c0 -20 -4
-25 -16 -20 -9 3 -18 6 -20 6 -2 0 -4 9 -4 20 0 13 7 20 20 20 15 0 20 -7 20
-26z m50 -14 c0 -38 -2 -40 -20 -30 -13 7 -20 21 -20 40 0 23 4 30 20 30 17 0
20 -7 20 -40z m60 -41 l0 -82 -25 37 c-17 26 -25 50 -25 81 0 41 2 45 25 45
25 0 25 -1 25 -81z m50 -134 c0 -208 -1 -215 -20 -215 -19 0 -20 7 -20 215 0
208 1 215 20 215 19 0 20 -7 20 -215z m50 0 c0 -208 -1 -215 -20 -215 -19 0
-20 7 -20 215 0 208 1 215 20 215 19 0 20 -7 20 -215z m50 0 c0 -208 -1 -215
-20 -215 -19 0 -20 7 -20 215 0 208 1 215 20 215 19 0 20 -7 20 -215z m60 148
c-1 -57 -5 -73 -25 -98 l-25 -30 0 98 c0 97 0 97 25 97 24 0 25 -2 25 -67z
m50 25 c0 -23 -6 -49 -12 -58 -7 -9 6 3 28 27 l41 44 41 -48 c28 -32 37 -50
29 -55 -6 -4 -8 -10 -4 -15 16 -15 26 21 11 41 -8 11 -14 40 -14 63 0 37 3 43
21 43 19 0 20 -5 18 -72 -2 -67 0 -74 29 -108 l31 -38 -36 -42 c-26 -30 -38
-38 -44 -29 -4 8 -11 10 -16 6 -4 -5 -1 -12 7 -17 12 -7 8 -16 -20 -45 -24
-24 -36 -31 -41 -23 -5 7 -11 9 -16 5 -4 -5 -1 -12 7 -17 8 -5 11 -13 6 -17
-4 -4 -28 14 -52 42 -24 27 -44 45 -44 38 0 -6 7 -16 15 -23 9 -7 15 -29 15
-51 0 -33 -3 -39 -21 -39 -19 0 -20 5 -18 64 2 60 0 67 -33 107 l-36 43 36 41
c34 39 35 44 33 108 -2 62 -1 67 18 67 18 0 21 -6 21 -42z m50 29 c0 -8 -9
-22 -20 -32 -20 -18 -20 -17 -20 13 0 25 4 32 20 32 11 0 20 -6 20 -13z m60
-24 l-1 -38 -24 28 c-32 36 -31 47 0 47 22 0 25 -4 25 -37z m100 -59 l0 -97
-20 26 c-16 20 -20 40 -20 96 0 64 2 71 20 71 19 0 20 -7 20 -96z m50 -119 c0
-207 -1 -215 -20 -215 -19 0 -19 8 -19 215 0 207 0 215 19 215 19 0 20 -8 20
-215z m-730 -90 l0 -125 -25 0 -25 0 0 118 c0 65 3 122 7 125 3 4 15 7 25 7
16 0 18 -10 18 -125z m-60 -5 c0 -113 -1 -120 -20 -120 -13 0 -20 7 -20 20 0
14 5 18 18 13 16 -6 16 -5 0 14 -14 15 -18 37 -18 96 0 62 3 78 18 86 9 6 18
11 20 11 1 0 2 -54 2 -120z m160 18 c0 -65 -3 -84 -17 -95 -17 -14 -17 -14 0
-9 12 4 17 0 17 -14 0 -13 -7 -20 -20 -20 -19 0 -20 7 -20 120 0 118 1 120 20
110 17 -9 20 -21 20 -92z m-210 -5 c-1 -64 -2 -67 -15 -43 -8 14 -14 35 -15
48 0 23 16 62 25 62 3 0 5 -30 5 -67z m250 8 c-1 -14 -7 -37 -15 -51 -13 -23
-14 -21 -14 45 0 64 1 68 14 51 8 -11 15 -31 15 -45z m-770 -73 c0 -66 -1 -68
-25 -68 -25 0 -25 1 -25 92 l0 91 25 -23 c22 -21 25 -32 25 -92z m260 22 c0
-83 -1 -90 -20 -90 -18 0 -20 7 -20 72 0 52 4 76 17 90 9 10 18 18 20 18 1 0
3 -40 3 -90z m790 -22 c0 -66 -1 -68 -25 -68 -25 0 -25 1 -25 92 l0 91 25 -23
c22 -21 25 -32 25 -92z m260 22 c0 -83 -1 -90 -20 -90 -18 0 -20 7 -20 72 0
52 4 76 17 90 9 10 18 18 20 18 1 0 3 -40 3 -90z m-470 -20 c0 -68 -1 -70 -25
-70 -22 0 -25 4 -25 35 0 28 35 104 48 105 1 0 2 -31 2 -70z m420 -10 c0 -53
-2 -60 -20 -60 -17 0 -20 7 -20 42 0 34 20 78 37 78 1 0 3 -27 3 -60z m-1210
-22 c0 -31 -3 -38 -20 -38 -18 0 -20 7 -20 57 0 55 0 56 20 38 13 -12 20 -31
20 -57z m470 -15 c0 -16 -6 -23 -20 -23 -16 0 -20 7 -20 35 0 33 1 34 20 23
11 -7 20 -23 20 -35z m260 12 c0 -28 -4 -35 -20 -35 -26 0 -27 37 -2 56 23 18
22 19 22 -21z m430 0 c0 -31 -3 -35 -25 -35 -14 0 -25 3 -25 6 0 6 42 62 48
63 1 1 2 -15 2 -34z m-1110 -27 c0 -5 -9 -8 -20 -8 -16 0 -20 7 -20 33 l0 32
20 -25 c11 -14 20 -28 20 -32z m50 22 c0 -23 -4 -30 -20 -30 -24 0 -25 4 -4
35 21 32 24 31 24 -5z m1000 -17 c0 -7 -9 -13 -20 -13 -16 0 -20 7 -20 32 0
30 0 31 20 13 11 -10 20 -24 20 -32z"/>
<path d="M676 2921 c-4 -5 -2 -12 3 -15 5 -4 12 -2 15 3 4 5 2 12 -3 15 -5 4
-12 2 -15 -3z"/>
<path d="M631 2823 c-28 -31 -51 -59 -51 -62 1 -4 25 -32 54 -63 l52 -57 53
60 53 59 -41 49 c-67 79 -62 79 -120 14z m49 -60 c0 -95 0 -96 -20 -78 -26 24
-29 129 -3 157 9 10 18 18 20 18 1 0 3 -43 3 -97z m50 2 c0 -49 -4 -66 -20
-80 -20 -18 -20 -17 -20 80 0 97 0 98 20 80 16 -14 20 -31 20 -80z m-100 -7
l0 -43 -20 25 c-17 23 -17 26 -3 42 9 10 18 18 20 18 1 0 3 -19 3 -42z m140
-9 c-19 -35 -30 -31 -30 12 0 41 0 42 20 24 15 -13 17 -22 10 -36z"/>
<path d="M600 2840 c0 -5 5 -10 10 -10 6 0 10 5 10 10 0 6 -4 10 -10 10 -5 0
-10 -4 -10 -10z"/>
<path d="M750 2840 c0 -5 5 -10 11 -10 5 0 7 5 4 10 -3 6 -8 10 -11 10 -2 0
-4 -4 -4 -10z"/>
<path d="M545 2760 c3 -5 8 -10 11 -10 2 0 4 5 4 10 0 6 -5 10 -11 10 -5 0 -7
-4 -4 -10z"/>
<path d="M805 2760 c4 -6 11 -8 16 -5 14 9 11 15 -7 15 -8 0 -12 -5 -9 -10z"/>
<path d="M600 2690 c0 -5 5 -10 10 -10 6 0 10 5 10 10 0 6 -4 10 -10 10 -5 0
-10 -4 -10 -10z"/>
<path d="M675 2610 c4 -6 11 -8 16 -5 14 9 11 15 -7 15 -8 0 -12 -5 -9 -10z"/>
<path d="M1134 2861 c-54 -24 -86 -71 -90 -129 l-3 -47 8 46 c16 87 59 125
156 139 49 7 49 8 10 9 -22 0 -58 -8 -81 -18z"/>
<path d="M1730 2909 c0 -5 5 -7 10 -4 6 3 10 8 10 11 0 2 -4 4 -10 4 -5 0 -10
-5 -10 -11z"/>
<path d="M1710 2855 c-17 -18 -27 -22 -36 -14 -8 7 -14 7 -19 -1 -3 -5 1 -10
9 -10 23 0 20 -13 -9 -40 l-25 -23 26 -34 c20 -26 22 -33 9 -33 -9 0 -13 -5
-10 -10 5 -8 11 -8 20 0 10 8 19 3 38 -20 l25 -30 52 60 c46 53 50 62 38 78
-16 23 -87 102 -91 102 -2 0 -14 -11 -27 -25z m20 -92 c0 -95 0 -96 -20 -78
-26 23 -28 114 -4 150 9 14 18 25 20 25 2 0 4 -43 4 -97z m60 3 c-1 -39 -7
-58 -25 -81 l-25 -30 0 104 0 104 25 -23 c20 -19 25 -33 25 -74z m-110 -3 c0
-36 0 -36 -20 -18 -19 17 -19 19 -4 37 23 24 24 24 24 -19z m137 -20 c-16 -16
-17 -15 -17 17 0 32 1 33 17 17 16 -16 16 -18 0 -34z"/>
<path d="M1595 2760 c4 -6 11 -8 16 -5 14 9 11 15 -7 15 -8 0 -12 -5 -9 -10z"/>
<path d="M1860 2760 c0 -5 5 -10 10 -10 6 0 10 5 10 10 0 6 -4 10 -10 10 -5 0
-10 -4 -10 -10z"/>
<path d="M2004 2840 c0 -74 1 -105 3 -67 2 37 2 97 0 135 -2 37 -3 6 -3 -68z"/>
<path d="M424 2820 c0 -69 1 -97 3 -62 2 34 2 90 0 125 -2 34 -3 6 -3 -63z"/>
<path d="M1810 2396 c-113 -67 -294 -175 -402 -238 l-197 -116 -391 229 c-215
127 -397 232 -405 236 -13 4 -15 -18 -14 -148 1 -85 3 -146 6 -136 4 15 23 17
223 17 188 0 225 -2 256 -17 36 -18 33 -18 -227 -23 l-264 -6 275 -2 c255 -2
277 -4 305 -22 l30 -20 -302 0 -303 0 0 -110 0 -110 307 -2 308 -3 -38 -22
c-37 -22 -47 -23 -297 -23 l-259 0 -4 23 c-2 12 -4 2 -4 -23 -1 -25 1 -37 4
-27 4 17 22 18 262 17 l257 -2 137 82 138 81 267 -156 267 -157 122 -1 c76 -1
123 2 123 8 0 6 -46 9 -124 7 -110 -3 -127 -1 -157 17 l-34 21 158 0 c118 0
157 -3 158 -12 2 -22 17 46 17 77 0 17 -2 22 -5 13 -4 -16 -23 -18 -218 -18
-197 0 -217 2 -247 20 l-33 20 258 0 257 0 -1 53 c-1 28 -3 44 -6 35 -4 -17
-28 -18 -314 -18 -276 0 -313 2 -342 18 -31 17 -22 17 318 22 l350 5 0 235 0
235 -40 5 -40 5 32 18 c24 12 33 14 36 4 3 -6 6 -2 6 11 1 12 0 22 -1 21 -2 0
-95 -56 -208 -123z m-1340 69 c0 -3 -13 -5 -30 -5 -23 0 -30 4 -30 20 0 20 1
20 30 5 17 -9 30 -18 30 -20z m62 -35 l33 -20 -77 0 c-71 0 -78 2 -78 20 0 17
7 20 45 20 27 0 57 -8 77 -20z m1488 0 c0 -18 -7 -20 -82 -20 l-83 0 30 19
c19 13 49 20 83 20 46 1 52 -1 52 -19z m-1410 -45 c17 -9 30 -18 30 -20 0 -3
-52 -5 -115 -5 -108 0 -115 1 -115 20 0 18 7 20 85 20 58 0 96 -5 115 -15z
m1410 -5 c0 -19 -7 -20 -120 -20 -66 0 -120 2 -120 5 0 2 12 11 28 19 18 10
57 15 120 16 85 0 92 -1 92 -20z m-1309 -55 l44 -25 -172 0 -173 0 0 25 0 25
129 0 c119 0 132 -2 172 -25z m1309 0 l0 -25 -172 0 c-94 0 -168 3 -165 7 36
36 64 42 200 42 l137 1 0 -25z m-1215 -55 l30 -20 -212 0 c-206 0 -213 1 -213
20 0 19 7 20 183 20 165 0 185 -2 212 -20z m1215 0 c0 -19 -7 -20 -217 -20
l-218 0 30 20 c27 18 47 20 218 20 180 0 187 -1 187 -20z m0 -50 c0 -19 -7
-20 -255 -20 -140 0 -255 2 -255 5 0 2 12 11 28 19 22 12 72 15 255 16 220 0
227 -1 227 -20z m0 -50 c0 -20 -7 -20 -302 -20 -303 0 -303 0 -273 19 28 18
52 20 303 20 266 1 272 1 272 -19z m-960 -50 c22 -11 40 -23 40 -25 0 -3 -155
-5 -345 -5 l-345 0 0 25 0 25 305 0 c287 0 308 -1 345 -20z m960 -5 l0 -25
-352 0 -353 1 40 24 40 25 313 0 312 0 0 -25z m-858 -55 l33 -20 -392 0 c-386
0 -393 0 -393 20 0 20 7 20 360 20 342 0 361 -1 392 -20z m858 0 c0 -20 -7
-20 -397 -20 -398 1 -398 1 -363 20 33 18 60 19 398 20 355 0 362 0 362 -20z
m-840 -35 c0 -2 -13 -11 -30 -20 -24 -13 -85 -15 -385 -15 -348 0 -355 0 -355
20 0 20 7 20 385 20 212 0 385 -2 385 -5z m840 -15 c0 -20 -7 -20 -362 -20
-345 0 -364 1 -393 20 l-30 20 393 0 c385 0 392 0 392 -20z m-948 -50 c-31
-19 -50 -20 -347 -20 -308 0 -315 0 -315 20 0 20 7 20 348 20 l347 0 -33 -20z
m938 -55 l0 -25 -262 0 c-262 0 -263 0 -303 25 l-40 24 303 1 302 0 0 -25z
m-14 -101 c-3 -9 -6 -18 -6 -20 0 -2 -74 -4 -165 -4 -129 0 -173 3 -195 15
-17 9 -30 18 -30 20 0 3 90 5 201 5 179 0 200 -2 195 -16z"/>
<path d="M990 2485 c-7 -8 -19 -15 -26 -15 -11 0 -14 -26 -14 -130 l0 -130
109 0 c63 0 112 -4 116 -10 3 -5 19 -10 35 -10 16 0 32 5 35 10 4 6 53 10 116
10 l109 0 0 131 c0 100 -3 130 -12 127 -9 -3 -14 -39 -16 -121 -3 -136 -4
-136 -108 -117 -46 9 -72 9 -94 1 -21 -7 -39 -7 -57 0 -19 7 -48 7 -95 -1
-109 -19 -108 -19 -108 119 0 125 8 148 46 135 16 -5 16 -4 4 5 -20 14 -25 14
-40 -4z"/>
<path d="M1133 2493 c9 -2 25 -2 35 0 9 3 1 5 -18 5 -19 0 -27 -2 -17 -5z"/>
<path d="M1253 2493 c9 -2 25 -2 35 0 9 3 1 5 -18 5 -19 0 -27 -2 -17 -5z"/>
<path d="M1410 2491 c0 -5 7 -12 16 -15 14 -5 15 -4 4 9 -14 17 -20 19 -20 6z"/>
<path d="M1078 2483 c7 -3 16 -2 19 1 4 3 -2 6 -13 5 -11 0 -14 -3 -6 -6z"/>
<path d="M1328 2483 c7 -3 16 -2 19 1 4 3 -2 6 -13 5 -11 0 -14 -3 -6 -6z"/>
<path d="M1298 2433 c7 -3 16 -2 19 1 4 3 -2 6 -13 5 -11 0 -14 -3 -6 -6z"/>
<path d="M1043 2423 c9 -2 25 -2 35 0 9 3 1 5 -18 5 -19 0 -27 -2 -17 -5z"/>
<path d="M1343 2423 c9 -2 25 -2 35 0 9 3 1 5 -18 5 -19 0 -27 -2 -17 -5z"/>
<path d="M1118 2373 c7 -3 16 -2 19 1 4 3 -2 6 -13 5 -11 0 -14 -3 -6 -6z"/>
<path d="M1288 2373 c7 -3 16 -2 19 1 4 3 -2 6 -13 5 -11 0 -14 -3 -6 -6z"/>
<path d="M1043 2363 c9 -2 25 -2 35 0 9 3 1 5 -18 5 -19 0 -27 -2 -17 -5z"/>
<path d="M1343 2363 c9 -2 25 -2 35 0 9 3 1 5 -18 5 -19 0 -27 -2 -17 -5z"/>
<path d="M1138 2313 c12 -2 30 -2 40 0 9 3 -1 5 -23 4 -22 0 -30 -2 -17 -4z"/>
<path d="M1248 2313 c12 -2 32 -2 45 0 12 2 2 4 -23 4 -25 0 -35 -2 -22 -4z"/>
<path d="M1078 2303 c7 -3 16 -2 19 1 4 3 -2 6 -13 5 -11 0 -14 -3 -6 -6z"/>
<path d="M1328 2303 c7 -3 16 -2 19 1 4 3 -2 6 -13 5 -11 0 -14 -3 -6 -6z"/>
<path d="M1133 2253 c9 -2 25 -2 35 0 9 3 1 5 -18 5 -19 0 -27 -2 -17 -5z"/>
<path d="M1258 2253 c12 -2 30 -2 40 0 9 3 -1 5 -23 4 -22 0 -30 -2 -17 -4z"/>
<path d="M1048 2243 c12 -2 30 -2 40 0 9 3 -1 5 -23 4 -22 0 -30 -2 -17 -4z"/>
<path d="M1343 2243 c9 -2 25 -2 35 0 9 3 1 5 -18 5 -19 0 -27 -2 -17 -5z"/>
<path d="M1237 1930 c-14 -11 -40 -20 -59 -20 -45 -1 -78 -30 -78 -70 0 -29
-2 -31 -17 -19 -14 12 -16 12 -11 -1 5 -16 15 -16 85 -6 23 3 44 2 47 -3 7
-11 -113 -24 -137 -15 -9 3 -17 16 -17 27 0 20 -1 20 -16 5 -23 -23 -11 -52
17 -43 13 5 19 3 15 -3 -3 -5 3 -12 14 -15 11 -3 20 -11 20 -19 0 -10 -3 -9
-10 2 -8 13 -10 13 -10 -2 0 -9 5 -18 11 -20 7 -2 9 -13 4 -27 -6 -20 -12 -23
-41 -18 -38 6 -44 -6 -19 -39 20 -26 19 -46 -2 -42 -10 2 -18 11 -18 20 0 9
-4 20 -8 24 -13 13 -8 -31 6 -45 10 -11 7 -12 -13 -6 -14 4 -37 14 -52 21 -31
16 -52 18 -25 3 19 -11 25 -79 6 -79 -5 0 -8 -4 -4 -10 3 -5 -7 -5 -25 1 -16
6 -30 13 -30 16 0 3 7 3 15 0 22 -9 23 2 13 75 -7 58 -6 71 9 94 16 25 16 27
-2 40 -34 25 -71 14 -45 -12 8 -8 6 -15 -4 -23 -10 -8 -16 -9 -21 -1 -8 12
-55 13 -75 0 -8 -5 -12 -10 -10 -12 3 -2 19 -11 35 -20 17 -10 29 -22 27 -28
-1 -7 2 -8 8 -5 8 5 6 13 -6 26 -13 14 -14 23 -7 30 21 21 33 -3 33 -66 0 -49
-4 -64 -16 -69 -23 -9 -29 0 -14 19 8 10 9 15 1 15 -6 0 -11 13 -11 29 0 17
-6 31 -16 35 -24 9 -31 7 -11 -5 25 -15 21 -29 -9 -29 -21 0 -25 4 -21 20 7
27 -18 26 -37 -2 -15 -21 -14 -23 3 -33 10 -5 16 -16 14 -22 -3 -7 2 -13 10
-13 8 0 17 -7 21 -15 3 -8 17 -15 31 -15 14 0 25 -4 25 -10 0 -5 10 -10 23
-10 13 0 27 -4 32 -9 6 -5 19 -11 30 -13 16 -3 13 -7 -19 -26 -40 -24 -66 -23
-66 1 0 19 -33 47 -56 47 -26 0 -50 -17 -40 -27 5 -4 11 -2 13 5 3 6 12 12 20
12 13 0 13 -3 3 -15 -10 -13 -10 -19 5 -35 16 -18 16 -19 -20 -22 -25 -2 -43
-10 -52 -24 -13 -21 -12 -22 29 -24 73 -3 78 -4 78 -16 0 -6 -7 -17 -15 -24
-12 -10 -18 -10 -30 0 -13 11 -13 15 -3 21 7 5 9 9 3 9 -27 0 -49 -38 -38 -65
4 -13 8 -14 22 -3 9 7 26 19 39 26 21 12 22 11 16 -13 -5 -19 -2 -25 10 -25 9
0 16 -5 16 -11 0 -5 -5 -7 -11 -3 -7 4 -10 1 -7 -7 3 -8 13 -16 23 -17 10 -3
15 0 11 7 -10 16 15 89 32 96 8 3 20 0 26 -6 8 -9 8 -10 -1 -5 -6 3 -14 2 -18
-4 -13 -21 25 -9 56 18 24 19 31 22 26 10 -8 -22 15 -24 33 -3 7 8 16 13 20
10 13 -8 38 5 44 22 5 13 4 13 -8 4 -18 -15 -26 13 -26 92 0 49 3 57 19 57 16
0 19 -9 23 -74 2 -41 7 -78 11 -82 4 -4 17 2 29 14 21 20 22 29 20 169 -2 81
1 153 5 159 4 6 29 14 56 18 l47 7 0 53 c0 40 5 57 20 71 20 18 20 17 20 -86
l0 -104 34 -2 c28 -1 33 2 29 17 -4 15 -1 18 16 13 23 -6 28 -19 9 -26 -9 -4
-8 -6 3 -6 15 -1 39 17 39 30 0 4 -16 10 -35 13 -26 5 -35 12 -35 26 0 14 7
20 21 20 16 0 20 -5 16 -20 -7 -27 19 -26 33 1 17 30 6 53 -18 38 -11 -7 -27
-9 -36 -6 -18 7 -22 27 -5 27 5 0 7 -4 4 -10 -3 -5 -2 -10 3 -10 8 0 22 23 22
33 0 7 -80 3 -80 -4 0 -5 6 -9 14 -9 9 0 14 -17 15 -60 2 -59 1 -60 -19 -48
-18 12 -20 22 -19 106 1 51 -1 95 -3 98 -3 2 -16 -5 -31 -16z m-27 -69 c0 -35
-2 -38 -25 -33 -21 4 -25 10 -25 38 0 30 3 34 25 34 22 0 25 -4 25 -39z m-60
-6 c0 -28 -4 -35 -20 -35 -26 0 -27 37 -2 56 23 18 22 19 22 -21z m231 -58
c-8 -8 -11 -7 -11 4 0 9 3 19 7 23 4 4 9 2 11 -4 3 -7 -1 -17 -7 -23z m-337 7
c3 -8 2 -12 -4 -9 -6 3 -10 10 -10 16 0 14 7 11 14 -7z m-157 -156 c2 -76 -4
-97 -27 -98 -11 0 -11 127 -1 154 18 45 26 29 28 -56z m204 -201 c-20 -20 -26
5 -28 113 -1 95 1 109 15 112 15 3 17 -10 20 -106 2 -65 -1 -113 -7 -119z
m-41 208 c0 -8 -2 -15 -4 -15 -2 0 -6 7 -10 15 -3 8 -1 15 4 15 6 0 10 -7 10
-15z m-260 -45 c0 -5 -8 -10 -17 -10 -15 0 -14 -2 3 -16 18 -15 18 -15 -5 -2
-35 21 -38 38 -7 38 14 0 26 -4 26 -10z m206 -24 c1 0 4 -40 5 -89 2 -48 2
-82 0 -76 -2 6 -10 0 -19 -13 l-16 -22 -7 24 c-13 47 -10 110 6 116 8 4 15 10
15 15 0 4 -7 6 -15 3 -11 -5 -15 1 -15 26 0 28 2 31 23 24 12 -3 23 -7 23 -8z
m-206 -94 c0 -24 -2 -25 -15 -11 -9 9 -13 23 -9 32 9 24 24 11 24 -21z m150
-26 c0 -29 -7 -52 -20 -67 l-19 -24 -1 61 c0 63 4 74 27 74 9 0 13 -14 13 -44z
m-67 -64 c-16 -12 -18 -10 -21 25 -3 27 1 41 15 51 16 12 18 10 21 -25 3 -27
-1 -41 -15 -51z m-33 28 c0 -44 -20 -100 -36 -100 -11 0 -13 6 -8 23 4 12 6
46 5 75 -2 51 -1 52 18 40 12 -7 21 -23 21 -38z m-50 4 c0 -8 -10 -14 -25 -14
-29 0 -35 26 -7 33 22 5 32 -1 32 -19z m-88 -6 c-7 -7 -12 -8 -12 -2 0 14 12
26 19 19 2 -3 -1 -11 -7 -17z m20 -80 c-7 -7 -12 -8 -12 -2 0 14 12 26 19 19
2 -3 -1 -11 -7 -17z"/>
<path d="M1170 1870 c0 -5 5 -10 11 -10 5 0 7 5 4 10 -3 6 -8 10 -11 10 -2 0
-4 -4 -4 -10z"/>
<path d="M1306 1890 c-17 -6 -18 -7 -3 -13 9 -3 19 -2 23 4 9 15 2 18 -20 9z"/>
<path d="M1055 1861 c-3 -5 0 -13 6 -17 7 -4 9 -3 5 4 -3 6 2 13 11 15 16 4
16 5 1 6 -9 0 -19 -3 -23 -8z"/>
<path d="M876 1845 c-16 -12 -62 -15 -238 -15 -249 0 -228 10 -203 -100 17
-73 34 -120 44 -120 3 0 13 5 21 11 13 9 12 10 -2 5 -11 -3 -22 2 -28 14 -10
19 -7 20 42 20 51 -1 52 -1 28 -15 -14 -8 -21 -14 -17 -15 8 0 364 207 382
222 16 14 -9 8 -29 -7z m-74 -45 c-29 -18 -50 -20 -202 -20 -163 0 -170 1
-170 20 0 19 7 20 203 20 l202 0 -33 -20z m-62 -35 c0 -2 -13 -11 -30 -20 -21
-11 -61 -15 -150 -15 -113 0 -120 1 -120 20 0 19 7 20 150 20 83 0 150 -2 150
-5z m-115 -70 c-49 -30 -159 -36 -169 -9 -12 31 -4 34 102 34 l107 0 -40 -25z"/>
<path d="M1206 1772 c-5 -8 -22 -12 -41 -10 -19 1 -37 -1 -41 -5 -4 -4 0 -7 9
-7 12 0 17 -9 17 -28 0 -19 5 -29 15 -29 8 0 15 6 15 14 0 7 -4 13 -10 13 -21
0 -9 28 14 32 23 5 24 3 24 -49 -1 -58 -8 -65 -32 -31 l-16 22 0 -26 c0 -22
-4 -26 -17 -21 -11 4 -12 8 -5 11 17 5 15 29 -3 29 -8 0 -15 -9 -15 -19 0 -10
7 -21 15 -24 12 -5 15 -28 15 -120 0 -98 -2 -114 -16 -114 -12 0 -14 5 -9 18
14 32 18 82 6 82 -7 0 -9 -9 -5 -25 4 -18 1 -32 -11 -45 -23 -26 -15 -33 43
-40 l47 -5 3 -64 c2 -44 -1 -67 -10 -73 -8 -5 1 -8 26 -6 41 3 64 28 26 28
-15 0 -20 5 -18 18 5 27 75 23 116 -7 39 -28 41 -53 6 -80 -35 -28 -58 -26
-78 4 -18 28 -57 33 -75 11 -9 -11 -7 -15 11 -21 21 -7 19 -8 -12 -12 -58 -8
-82 -37 -30 -39 16 -1 27 2 25 7 -3 4 0 11 6 14 7 5 10 1 7 -10 -1 -10 -19
-23 -38 -29 -44 -14 -52 -41 -12 -41 23 0 28 4 24 18 -3 10 1 17 11 17 10 0
14 -9 13 -29 0 -16 -4 -27 -8 -25 -10 7 -33 -44 -25 -53 4 -3 15 1 25 10 10
10 22 17 26 17 5 0 21 11 38 25 16 14 36 25 44 25 10 0 14 12 14 40 0 29 5 42
20 50 19 10 20 8 21 -37 0 -28 3 -41 7 -31 5 13 11 15 22 8 13 -9 13 -11 0
-20 -20 -13 -4 -13 21 1 11 5 17 14 14 20 -4 5 0 9 8 9 8 0 20 6 26 14 10 11
8 16 -8 21 -20 6 -21 14 -21 151 0 142 0 144 20 134 18 -10 20 -21 20 -121 0
-71 -4 -108 -10 -104 -5 3 -10 1 -10 -4 0 -6 5 -11 11 -11 6 0 9 -9 6 -20 -6
-24 1 -25 31 -4 27 19 29 38 2 29 -17 -5 -15 -1 8 23 52 56 55 62 34 62 -10 0
-23 -5 -30 -12 -9 -9 -12 -6 -12 15 0 23 4 27 30 27 40 0 80 39 80 78 0 38
-19 61 -104 125 -38 29 -76 62 -83 74 -13 19 -12 24 6 42 12 12 15 21 9 23
-15 5 -1 28 18 28 8 0 14 -9 14 -20 0 -13 6 -20 18 -19 10 0 12 3 5 6 -7 2
-13 14 -13 25 0 18 -4 20 -32 14 -17 -3 -40 -14 -51 -24 -23 -20 -52 -17 -85
9 -27 21 -42 17 -42 -12 0 -20 -24 -26 -35 -9 -3 6 1 7 9 4 11 -4 16 0 16 11
0 9 -4 14 -9 11 -8 -5 -12 3 -30 59 -5 15 -9 17 -15 7z m24 -62 c0 -5 -5 -10
-11 -10 -5 0 -7 5 -4 10 3 6 8 10 11 10 2 0 4 -4 4 -10z m80 -31 c0 -12 -5
-16 -15 -13 -8 4 -15 15 -15 25 0 12 5 16 15 13 8 -4 15 -15 15 -25z m101 -27
c-6 -11 -6 -24 0 -33 5 -7 9 -25 9 -39 l0 -25 -20 25 c-24 31 -25 68 -3 100
15 21 18 22 21 8 2 -9 -1 -25 -7 -36z m-76 18 c3 -5 1 -10 -4 -10 -6 0 -11 5
-11 10 0 6 2 10 4 10 3 0 8 -4 11 -10z m-91 -6 c9 -3 16 -13 16 -21 0 -8 -4
-11 -10 -8 -14 9 -13 -8 2 -23 15 -15 4 -26 -17 -19 -9 4 -15 19 -15 42 0 38
0 38 24 29z m145 -88 c8 -9 37 -33 65 -53 28 -20 63 -48 79 -62 29 -27 38 -19
11 10 -22 25 -14 44 10 26 17 -12 18 -20 10 -58 -7 -35 -14 -45 -33 -47 -13
-2 -28 2 -32 10 -7 10 -9 9 -9 -4 0 -10 7 -18 15 -18 8 0 15 -7 15 -16 0 -10
-6 -14 -14 -11 -11 4 -16 -4 -19 -31 -2 -20 -4 -2 -4 40 1 95 -8 107 -105 138
-40 13 -83 34 -97 48 l-25 26 27 9 c35 11 35 25 0 30 -23 3 -21 4 9 6 20 0 39
5 43 10 3 6 -10 8 -30 5 -27 -3 -35 -1 -35 12 0 12 3 14 13 6 8 -7 23 -6 47 2
l35 11 6 -37 c3 -20 11 -43 18 -52z m-195 68 c13 -5 16 -25 16 -120 l0 -114
-25 0 -25 0 0 104 c0 92 5 136 15 136 2 0 10 -3 19 -6z m66 -197 c0 -101 -2
-113 -20 -125 -19 -11 -20 -10 -20 29 0 28 6 46 18 55 16 13 16 13 0 14 -16 0
-18 11 -18 80 0 78 1 80 20 70 18 -10 20 -21 20 -123z m198 121 c7 -7 12 -21
12 -32 0 -18 -1 -19 -20 -1 -20 18 -27 45 -12 45 4 0 13 -5 20 -12z m62 -61
c0 -15 -3 -16 -20 -7 -11 6 -20 20 -20 30 0 18 3 19 20 8 11 -7 20 -21 20 -31z
m-212 -84 c-2 -51 -7 -95 -10 -99 -19 -19 -28 16 -28 112 0 103 0 104 21 92
19 -12 20 -20 17 -105z m52 -24 c0 -98 -6 -113 -30 -84 -10 12 -10 21 -1 41
14 31 14 47 1 39 -6 -4 -10 16 -10 53 0 55 2 60 20 55 18 -5 20 -14 20 -104z
m44 85 c14 -5 16 -28 16 -149 0 -106 -3 -144 -12 -148 -8 -2 0 -11 17 -20 l30
-16 -42 -1 c-41 0 -43 1 -43 30 0 17 5 39 12 49 9 15 9 25 0 46 -14 30 -16
215 -3 215 5 0 16 -3 25 -6z m196 -64 c0 -14 -5 -32 -10 -40 -7 -11 -10 1 -10
40 0 39 3 51 10 40 5 -8 10 -26 10 -40z m-33 -55 c-4 -8 -13 -15 -22 -15 -21
0 -19 28 3 32 22 5 26 2 19 -17z m-51 -100 c-18 -27 -36 -33 -36 -11 0 13 41
47 49 40 2 -2 -4 -15 -13 -29z m-266 -1 c0 -2 -7 -4 -15 -4 -8 0 -15 4 -15 10
0 5 7 7 15 4 8 -4 15 -8 15 -10z m10 -50 c0 -9 -8 -23 -17 -30 -17 -13 -17
-13 0 -14 13 0 17 -9 17 -44 0 -27 -6 -48 -15 -56 -21 -17 -32 -4 -17 20 7 11
8 20 3 20 -5 0 -12 7 -15 16 -4 12 -1 14 14 9 11 -4 20 -2 20 4 0 6 -7 11 -15
11 -16 0 -20 21 -7 34 4 4 8 12 8 17 1 5 2 14 3 19 2 17 21 11 21 -6z m50 -70
c0 -27 -14 -44 -36 -44 -2 0 -4 23 -4 50 0 48 1 50 20 38 13 -9 20 -24 20 -44z"/>
<path d="M1504 1698 c10 -8 16 -20 13 -25 -4 -6 6 -19 21 -28 27 -18 27 -18
10 2 -26 28 -24 51 2 28 11 -10 20 -25 20 -32 0 -8 9 -26 20 -40 11 -14 20
-33 20 -42 0 -14 -2 -14 -10 -1 -9 13 -11 13 -20 0 -15 -24 -12 -41 10 -47 13
-4 20 -14 20 -30 0 -33 42 -73 77 -72 15 0 22 3 16 6 -8 3 -12 21 -11 46 1 37
2 38 5 10 3 -21 10 -33 20 -33 9 0 13 -6 9 -15 -9 -24 28 -18 52 8 24 25 29
76 10 95 -19 19 -23 15 -25 -29 -1 -41 11 -43 20 -4 3 14 5 10 6 -11 1 -28
-23 -64 -43 -64 -10 0 -4 63 7 71 5 3 1 9 -8 13 -11 4 -16 1 -14 -12 5 -51
-16 -60 -24 -9 -3 23 1 37 14 50 22 20 25 41 7 35 -7 -3 -13 -11 -13 -18 0 -7
-6 -15 -14 -18 -8 -3 -12 1 -9 8 7 23 -133 151 -182 165 -24 7 -24 6 -6 -7z
m124 -167 c-1 -42 -3 -60 -5 -40 -3 31 -7 36 -24 32 -13 -4 -19 0 -19 10 0 10
6 13 20 10 15 -4 20 0 20 14 0 11 -9 32 -20 46 -29 36 -25 55 5 27 23 -21 25
-30 23 -99z m50 -44 c2 -37 -1 -67 -5 -67 -23 0 -33 29 -33 97 0 70 1 72 18
55 12 -12 18 -37 20 -85z"/>
<path d="M1776 1702 c5 -5 36 -24 69 -41 33 -18 51 -25 41 -17 -19 15 -17 16
28 16 40 0 47 -3 44 -17 -2 -11 -11 -17 -23 -15 -17 2 -17 1 -5 -7 20 -13 37
4 42 44 3 17 3 24 1 18 -7 -22 -122 -16 -161 7 -33 20 -54 27 -36 12z"/>
<path d="M1180 1681 c0 -6 5 -13 10 -16 6 -3 10 1 10 9 0 9 -4 16 -10 16 -5 0
-10 -4 -10 -9z"/>
<path d="M690 1605 c-10 -12 -10 -15 4 -15 9 0 16 7 16 15 0 8 -2 15 -4 15 -2
0 -9 -7 -16 -15z"/>
<path d="M1115 1379 c-4 -6 -4 -26 0 -45 7 -42 -7 -64 -42 -64 -37 0 -62 17
-78 55 -11 29 -19 35 -44 35 -35 0 -61 -9 -61 -21 0 -5 9 -9 19 -9 10 0 21 -7
24 -15 5 -11 0 -13 -21 -9 -19 4 -35 -1 -52 -15 -25 -20 -25 -20 -3 -21 12 0
25 -4 28 -10 3 -5 11 -10 17 -10 7 0 7 4 0 13 -15 17 1 39 21 31 32 -12 20
-43 -18 -50 -34 -6 -65 -27 -65 -42 0 -4 21 -8 48 -8 26 -1 39 0 30 3 -25 6
-23 33 2 33 11 0 20 -7 20 -15 0 -8 5 -15 12 -15 6 0 4 -8 -6 -19 -11 -13 -15
-27 -11 -40 7 -23 25 -29 25 -8 0 6 12 20 26 30 24 18 26 18 44 2 20 -18 57
-16 53 3 -2 7 2 12 8 12 7 0 18 8 25 18 13 16 14 16 8 0 -4 -11 -1 -18 6 -18
6 0 8 5 5 10 -3 6 4 10 17 10 18 0 23 6 23 25 0 14 -3 25 -7 25 -5 0 -8 27 -8
60 0 53 3 62 23 71 21 9 21 9 -3 4 -14 -2 -27 -5 -30 -5 -3 0 -4 -38 -2 -85 3
-84 -3 -100 -28 -70 -8 10 -9 24 -4 42 7 24 13 123 7 123 -1 0 -5 -5 -8 -11z
m-178 -35 c-3 -3 -12 -4 -19 -1 -8 3 -5 6 6 6 11 1 17 -2 13 -5z m61 -93 c4
-67 3 -69 -27 -90 -17 -12 -31 -18 -31 -12 0 6 5 11 12 11 6 0 8 3 5 7 -4 3 0
15 10 25 14 15 14 18 1 18 -10 0 -15 10 -15 30 0 18 6 30 14 30 17 0 16 10 -3
31 -10 11 -14 25 -10 35 6 16 8 16 24 1 11 -12 18 -39 20 -86z m-38 39 c0 -5
-2 -10 -4 -10 -3 0 -8 5 -11 10 -3 6 -1 10 4 10 6 0 11 -4 11 -10z m90 -82 c0
-50 0 -51 -20 -33 -14 13 -20 31 -20 62 0 41 1 43 20 33 16 -9 20 -21 20 -62z
m50 16 c0 -29 -3 -35 -16 -30 -13 5 -15 2 -11 -14 3 -11 1 -20 -4 -20 -5 0 -9
23 -9 50 0 43 3 50 20 50 16 0 20 -7 20 -36z"/>
<path d="M2080 708 c-11 -13 -24 -34 -27 -48 -3 -14 -11 -28 -17 -32 -8 -5 -7
-8 2 -8 8 0 12 -18 12 -54 0 -34 -5 -56 -12 -59 -7 -3 5 -5 27 -5 22 0 34 2
28 5 -8 3 -13 25 -13 59 0 47 2 54 20 54 11 0 20 5 20 10 0 6 -9 10 -21 10
-17 0 -20 5 -17 33 2 26 7 32 26 31 12 0 22 5 22 13 0 20 -27 15 -50 -9z"/>
<path d="M318 710 c20 -9 22 -15 22 -98 0 -103 6 -112 74 -119 38 -5 48 -2 70
20 24 24 26 33 26 106 0 66 3 82 18 90 13 8 9 10 -23 10 -32 0 -36 -2 -22 -10
27 -16 25 -151 -3 -179 -22 -22 -60 -26 -91 -10 -17 9 -19 22 -19 100 0 76 2
89 18 93 9 3 -8 5 -38 5 -42 1 -50 -1 -32 -8z"/>
<path d="M770 700 c0 -13 5 -20 13 -17 6 2 12 10 12 17 0 7 -6 15 -12 18 -8 2
-13 -5 -13 -18z"/>
<path d="M1455 710 c-4 -6 -3 -16 3 -22 6 -6 12 -6 17 2 4 6 3 16 -3 22 -6 6
-12 6 -17 -2z"/>
<path d="M1550 665 c0 -13 -8 -29 -17 -34 -17 -10 -17 -10 0 -11 14 0 17 -10
17 -59 0 -64 19 -86 48 -57 13 12 12 14 -4 13 -16 -2 -19 6 -22 51 -3 47 -1
52 17 52 12 0 21 5 21 10 0 6 -8 10 -17 8 -13 -2 -19 5 -21 25 -4 34 -22 36
-22 2z"/>
<path d="M624 634 c-18 -15 -18 -15 4 -9 37 10 52 -11 52 -71 0 -52 1 -54 28
-53 15 0 21 3 15 6 -8 3 -13 24 -13 54 0 73 -41 109 -86 73z"/>
<path d="M1054 638 c-47 -22 -56 -86 -19 -123 27 -28 62 -32 89 -12 16 12 14
13 -17 9 -27 -3 -38 1 -51 19 -24 35 -21 39 33 39 28 0 52 4 55 8 10 17 -6 50
-30 61 -29 13 -32 13 -60 -1z m56 -17 c17 -33 11 -41 -30 -41 -43 0 -50 12
-23 42 21 23 40 23 53 -1z"/>
<path d="M1237 633 c-10 -11 -17 -13 -17 -5 0 7 -12 12 -27 12 -21 0 -24 -3
-15 -12 16 -16 16 -115 0 -121 -7 -3 7 -5 32 -5 25 0 37 2 27 5 -15 4 -17 13
-15 56 3 48 5 52 28 52 15 0 25 6 25 14 0 22 -18 23 -38 4z"/>
<path d="M1350 643 c8 -3 23 -12 33 -21 15 -14 17 -14 17 0 0 17 -21 29 -48
27 -14 0 -14 -2 -2 -6z"/>
<path d="M1450 639 c-14 -4 -19 -7 -12 -8 8 -1 12 -20 12 -60 0 -38 -4 -61
-12 -64 -7 -3 5 -6 27 -6 22 0 35 3 28 7 -7 4 -13 36 -15 73 -3 64 -3 65 -28
58z"/>
<path d="M1936 639 c57 -30 56 -139 -1 -139 -40 0 -67 76 -41 115 19 29 7 33
-17 7 -24 -26 -22 -87 3 -112 29 -29 66 -25 101 9 48 49 30 113 -36 126 -27 5
-28 4 -9 -6z"/>
<path d="M568 628 c16 -16 16 -115 0 -121 -7 -3 5 -5 27 -5 22 0 32 2 22 5
-16 4 -18 14 -17 56 3 74 2 77 -22 77 -17 0 -19 -3 -10 -12z"/>
<path d="M758 628 c16 -16 16 -115 0 -121 -7 -3 5 -5 27 -5 22 0 34 2 28 5 -9
3 -13 27 -13 69 0 63 0 64 -27 64 -21 0 -24 -3 -15 -12z"/>
<path d="M865 593 c12 -27 25 -58 29 -70 7 -22 36 -33 36 -13 0 5 13 37 29 70
22 45 26 60 15 60 -8 0 -14 -8 -14 -17 0 -10 -9 -36 -19 -58 l-18 -40 -21 49
c-12 26 -19 52 -16 57 3 5 -6 9 -20 9 l-24 0 23 -47z"/>
<path d="M1307 633 c-4 -3 -7 -17 -7 -30 0 -19 10 -28 45 -43 49 -21 56 -34
25 -50 -26 -14 -57 -5 -63 18 -4 13 -5 11 -6 -5 -1 -29 13 -36 55 -28 24 4 39
14 46 31 14 30 4 43 -44 59 -25 8 -33 16 -32 33 1 22 -7 28 -19 15z"/>
<path d="M1637 628 c5 -7 22 -41 36 -76 25 -59 26 -65 12 -93 -9 -17 -24 -29
-35 -29 -11 0 -20 -4 -20 -10 0 -14 36 -12 47 3 5 6 27 53 48 102 21 50 43 96
48 103 7 8 4 12 -11 12 -14 0 -20 -5 -16 -13 2 -7 -4 -33 -15 -58 l-19 -44
-17 39 c-9 21 -17 47 -18 57 -1 13 -9 19 -25 19 -18 0 -22 -3 -15 -12z"/>
<path d="M285 321 c-36 -15 -57 -47 -53 -82 3 -37 21 -49 96 -69 24 -6 46 -18
49 -26 27 -71 -100 -115 -130 -45 l-11 26 -4 -23 c-8 -47 3 -55 70 -50 51 4
65 9 85 32 26 31 30 77 8 99 -8 9 -34 18 -57 22 -59 10 -78 22 -78 48 0 41 22
59 65 55 29 -2 42 -9 51 -26 l11 -23 5 26 c5 21 1 28 -19 36 -29 11 -61 11
-88 0z"/>
<path d="M774 314 c-32 -83 -107 -239 -121 -250 -16 -12 -12 -13 32 -13 44 0
48 1 28 12 -20 11 -20 14 -8 44 14 32 16 33 72 33 57 0 59 -1 71 -32 11 -29
10 -35 -5 -45 -14 -11 -10 -13 32 -13 45 0 47 1 33 18 -8 9 -36 69 -63 132
-55 130 -61 141 -71 114z m40 -131 c7 -22 4 -23 -39 -23 -34 0 -46 4 -42 13 3
6 13 32 23 56 l17 44 17 -34 c10 -19 21 -44 24 -56z"/>
<path d="M1300 320 c-13 -8 -12 -10 3 -10 13 0 17 -9 17 -41 0 -37 -2 -41 -21
-36 -26 7 -67 -8 -96 -35 -68 -64 19 -189 93 -133 24 18 35 19 32 2 -2 -7 10
-13 32 -15 28 -2 32 0 18 8 -16 10 -18 28 -18 140 0 128 0 130 -22 130 -13 0
-30 -5 -38 -10z m1 -110 c27 -15 27 -100 -1 -125 -56 -51 -125 60 -70 115 22
22 42 25 71 10z"/>
<path d="M467 283 c-4 -3 -7 -19 -7 -34 0 -16 -7 -32 -17 -38 -17 -10 -17 -10
0 -11 14 0 17 -10 17 -63 0 -36 5 -68 12 -75 17 -17 43 -15 58 3 11 13 10 14
-5 9 -24 -10 -35 12 -35 74 0 49 1 52 25 52 14 0 25 5 25 10 0 6 -12 10 -26
10 -24 0 -26 3 -22 35 4 33 -8 46 -25 28z"/>
<path d="M1031 224 c-18 -13 -25 -14 -31 -4 -6 9 -15 10 -36 2 -18 -6 -22 -11
-11 -11 14 -1 17 -11 17 -71 0 -55 -3 -71 -17 -79 -14 -8 -7 -10 32 -10 39 0
46 2 33 10 -14 8 -18 23 -18 67 0 65 11 82 52 82 36 0 48 -24 48 -99 l0 -61
33 0 c26 1 29 2 15 11 -14 8 -18 23 -18 70 0 50 -4 64 -25 84 -28 29 -42 31
-74 9z"/>
<path d="M1496 219 c-21 -17 -26 -18 -26 -5 0 17 -14 19 -45 6 -17 -7 -17 -9
-2 -9 14 -1 17 -11 17 -71 0 -55 -3 -71 -17 -79 -14 -8 -5 -10 37 -11 52 0 53
1 32 16 -44 30 -22 144 26 132 21 -6 38 15 26 33 -8 14 -19 11 -48 -12z"/>
<path d="M1613 225 c-88 -38 -64 -175 31 -175 19 0 41 3 50 6 28 11 17 20 -19
16 -39 -5 -69 14 -78 49 -4 16 0 19 36 19 65 0 87 9 87 35 0 45 -57 72 -107
50z m67 -24 c18 -34 12 -41 -40 -41 -43 0 -49 2 -43 18 16 45 63 58 83 23z"/>
<path d="M2110 227 c-19 -10 -25 -20 -25 -47 0 -32 3 -35 48 -49 38 -12 47
-19 47 -38 0 -43 -76 -44 -88 0 -6 22 -6 22 -12 -3 -10 -35 -4 -40 43 -40 54
0 87 22 87 59 0 23 -6 31 -32 41 -74 27 -79 30 -76 48 4 24 55 28 79 6 18 -16
19 -16 19 4 0 12 -6 22 -12 22 -7 0 -22 3 -33 5 -11 3 -31 -1 -45 -8z"/>
<path d="M1751 220 c9 -5 27 -46 40 -90 12 -44 26 -80 31 -80 4 0 22 30 39 68
l31 67 26 -68 c14 -37 29 -66 34 -65 5 2 23 37 39 78 17 41 37 81 46 88 14 10
11 12 -23 12 -27 0 -35 -3 -24 -9 12 -8 12 -17 -4 -66 -9 -30 -21 -53 -25 -50
-5 2 -19 32 -31 65 -12 33 -26 60 -30 60 -4 0 -20 -30 -35 -67 l-29 -67 -12
30 c-24 61 -27 92 -7 97 10 3 -4 5 -32 6 -36 0 -45 -2 -34 -9z"/>
</g>
</svg>
