<?xml version="1.0" standalone="no"?>
<!DOCTYPE svg PUBLIC "-//W3C//DTD SVG 20010904//EN"
 "http://www.w3.org/TR/2001/REC-SVG-20010904/DTD/svg10.dtd">
<svg version="1.0" xmlns="http://www.w3.org/2000/svg"
 width="700.000000pt" height="875.000000pt" viewBox="0 0 700.000000 875.000000"
 preserveAspectRatio="xMidYMid meet">

<g transform="translate(0.000000,875.000000) scale(0.100000,-0.100000)"
fill="#000000" stroke="none">
<path d="M2046 6829 c-6 -32 -36 -909 -43 -1274 -14 -713 57 -1120 252 -1450
140 -238 392 -476 715 -677 174 -108 494 -278 523 -278 7 0 75 32 152 71 803
408 1151 788 1279 1397 55 259 73 627 57 1127 -6 176 -15 464 -21 640 -6 176
-13 352 -16 390 l-5 70 -1444 4 -1444 4 -5 -24z m2805 -181 c3 -51 9 -185 13
-298 4 -113 11 -308 16 -435 20 -491 10 -906 -26 -1145 -99 -654 -413 -1030
-1202 -1438 l-162 -84 -147 78 c-657 345 -973 651 -1126 1091 -84 241 -108
422 -114 885 -5 321 15 1153 32 1358 2 30 4 62 5 70 0 13 156 15 1352 13
l1353 -3 6 -92z"/>
<path d="M2217 6663 c-8 -13 -34 -722 -28 -729 2 -2 593 -4 1313 -4 l1310 0
-6 98 c-3 53 -11 214 -17 357 -5 143 -12 266 -14 273 -4 9 -268 12 -1279 12
-701 0 -1277 -3 -1279 -7z m63 -363 l0 -340 -36 0 -37 0 6 123 c4 67 10 220
13 340 l7 217 24 0 23 0 0 -340z m90 181 c0 -128 -3 -161 -15 -171 -13 -11
-13 -15 0 -33 12 -17 15 -55 15 -169 l0 -148 -30 0 -30 0 0 340 0 340 30 0 30
0 0 -159z m82 52 c3 -100 2 -108 -22 -139 -14 -18 -28 -33 -32 -34 -5 0 -8 63
-8 140 l0 140 29 0 30 0 3 -107z m88 46 c0 -54 -4 -66 -30 -96 l-30 -34 0 96
0 95 30 0 30 0 0 -61z m90 51 c0 -6 -16 -27 -35 -48 l-34 -37 -1 48 0 47 35 0
c19 0 35 -5 35 -10z m80 -37 l-1 -48 -29 33 c-39 42 -39 62 0 62 29 0 30 -1
30 -47z m90 -48 c0 -52 -3 -95 -7 -95 -5 1 -20 17 -35 37 -23 30 -28 46 -28
95 l0 58 35 0 35 0 0 -95z m80 -52 l-1 -148 -29 35 c-29 34 -29 38 -30 148 l0
112 30 0 30 0 0 -147z m90 -193 l0 -340 -32 0 -33 0 2 150 c1 83 5 160 8 170
4 11 4 24 0 30 -3 5 -7 82 -8 170 l-2 160 33 0 32 0 0 -340z m80 0 l0 -340
-30 0 -30 0 0 340 0 340 30 0 30 0 0 -340z m90 0 l0 -340 -32 0 -33 0 3 340 3
340 29 0 30 0 0 -340z m80 265 c0 -63 -4 -80 -26 -112 -14 -21 -27 -39 -30
-42 -2 -2 -4 48 -4 112 l0 117 30 0 30 0 0 -75z m90 31 c0 -35 -5 -47 -25 -60
-13 -9 -27 -16 -30 -16 -3 0 -5 27 -5 60 l0 60 30 0 c29 0 30 -2 30 -44z m80
15 c0 -21 -6 -30 -22 -35 -36 -9 -38 -8 -38 29 0 32 2 35 30 35 26 0 30 -3 30
-29z m90 10 c0 -11 -9 -21 -22 -25 -35 -9 -38 -8 -38 19 0 21 5 25 30 25 23 0
30 -5 30 -19z m80 -7 c0 -22 -3 -25 -22 -20 -13 3 -26 6 -30 6 -5 0 -8 9 -8
20 0 16 7 20 30 20 26 0 30 -4 30 -26z m90 -10 c0 -33 -2 -36 -22 -30 -13 3
-26 6 -30 6 -5 0 -8 14 -8 30 0 27 3 30 30 30 28 0 30 -3 30 -36z m82 -24 c1
-33 1 -60 0 -60 -2 0 -17 8 -33 17 -25 15 -29 23 -29 60 0 41 1 43 29 43 29 0
29 -1 33 -60z m88 -57 c0 -64 -2 -114 -4 -112 -3 3 -16 21 -30 42 -22 32 -26
49 -26 112 l0 75 30 0 30 0 0 -117z m90 -223 l0 -340 -35 0 -35 0 0 340 0 340
35 0 35 0 0 -340z m80 0 l0 -340 -30 0 -30 0 0 340 0 340 30 0 30 0 0 -340z
m90 183 c0 -132 -3 -159 -17 -175 -15 -17 -15 -19 0 -36 14 -16 17 -43 17
-165 l0 -147 -35 0 -35 0 0 340 0 340 35 0 35 0 0 -157z m80 44 c0 -113 0
-113 -30 -142 l-30 -29 0 142 0 142 30 0 30 0 0 -113z m90 54 c0 -49 -4 -65
-26 -90 -14 -17 -29 -31 -32 -31 -4 0 -6 40 -4 90 l3 90 30 0 c29 0 29 0 29
-59z m80 41 c0 -10 -13 -31 -30 -47 l-30 -29 0 47 c0 46 1 47 30 47 22 0 30
-5 30 -18z m90 -29 l0 -47 -30 29 c-16 16 -30 37 -30 47 0 13 8 18 30 18 29 0
30 -1 30 -47z m80 -50 l0 -97 -30 34 c-25 31 -29 43 -30 98 l0 62 30 0 30 0 0
-97z m90 -50 l-1 -148 -29 35 c-29 34 -30 37 -30 147 l0 113 30 0 30 0 0 -147z
m80 -193 l0 -340 -30 0 -30 0 0 153 c0 97 4 157 11 164 8 8 8 17 0 31 -7 13
-11 83 -11 176 l0 156 30 0 30 0 0 -340z m94 163 c3 -98 9 -251 13 -340 l6
-163 -41 0 -42 0 0 340 0 340 28 0 29 0 7 -177z m-2008 -10 c65 -75 123 -143
127 -150 6 -10 -29 -57 -115 -158 -68 -79 -126 -144 -130 -144 -3 -1 -64 65
-136 145 l-130 147 132 148 c72 82 131 149 132 149 1 0 55 -62 120 -137z
m1719 -13 c54 -63 105 -123 113 -132 13 -15 1 -32 -113 -162 -69 -81 -130
-146 -133 -145 -13 1 -257 286 -254 295 2 5 60 73 130 152 119 135 127 142
142 125 9 -10 61 -70 115 -133z m-867 114 c153 -50 245 -212 198 -350 -9 -27
-26 -60 -37 -74 -17 -20 -19 -21 -14 -5 41 112 22 202 -59 281 -61 59 -122 84
-206 84 -157 0 -282 -115 -282 -258 0 -31 5 -70 11 -86 20 -50 4 -40 -26 16
-23 44 -27 65 -27 123 1 124 68 213 200 265 62 24 174 26 242 4z m7 -115 c53
-26 101 -76 121 -125 16 -38 18 -142 4 -164 -7 -11 -10 -5 -10 24 0 159 -197
256 -357 176 -74 -37 -112 -87 -122 -162 l-8 -53 -8 38 c-20 100 24 200 114
254 29 18 65 34 80 37 54 9 140 -2 186 -25z m-135 -279 l0 -200 -30 0 -30 0 0
194 c0 214 -5 194 53 205 4 0 7 -89 7 -199z m80 -6 l0 -194 -30 0 -30 0 0 193
c0 107 2 196 5 199 3 3 17 3 30 0 l25 -4 0 -194z m90 16 c0 -127 0 -130 -25
-146 -14 -9 -25 -21 -25 -26 0 -6 11 -7 25 -4 20 5 25 3 25 -14 0 -16 -7 -20
-30 -20 l-30 0 0 191 0 190 30 -21 30 -21 0 -129z m-258 -2 c4 -209 4 -208
-33 -208 -22 0 -29 5 -29 20 0 17 5 19 25 14 14 -3 25 -2 25 4 0 5 -11 17 -25
26 -25 16 -25 19 -25 146 0 122 1 130 22 144 12 9 26 16 30 16 4 0 8 -73 10
-162z m-82 5 c-1 -88 -2 -96 -15 -79 -25 33 -29 83 -10 131 9 25 19 45 21 45
2 0 4 -44 4 -97z m389 56 c6 -18 11 -41 11 -52 0 -29 -22 -97 -32 -97 -4 0 -8
41 -8 90 0 93 10 113 29 59z m-1246 -167 l2 -102 -32 0 -33 0 1 138 0 137 30
-35 c30 -34 31 -39 32 -138z m427 33 l0 -135 -30 0 -30 0 0 107 c0 102 1 108
27 135 15 15 28 28 30 28 2 0 3 -61 3 -135z m1280 -32 l0 -103 -30 0 -30 0 0
138 1 137 29 -35 c28 -34 29 -39 30 -137z m430 32 l0 -135 -30 0 -30 0 0 106
c0 95 2 109 23 134 12 16 25 29 30 29 4 1 7 -60 7 -134z m-1396 22 c21 -30 26
-50 26 -97 0 -60 0 -60 -30 -60 l-30 0 0 102 c0 56 2 99 4 97 3 -3 16 -21 30
-42z m626 -57 l0 -100 -30 0 c-30 0 -30 0 -30 60 0 49 5 67 28 99 15 22 28 40
30 41 1 0 2 -45 2 -100z m-1280 -47 c0 -52 0 -53 -30 -53 l-30 0 0 88 1 87 29
-35 c25 -29 30 -43 30 -87z m260 32 l0 -85 -35 0 -35 0 0 51 c0 39 6 58 26 85
15 19 30 34 35 34 5 0 9 -38 9 -85z m1423 51 c21 -28 27 -45 27 -85 0 -51 0
-51 -32 -51 l-33 0 0 85 c0 47 2 85 5 85 3 0 17 -16 33 -34z m277 -51 l0 -85
-30 0 c-30 0 -30 1 -30 54 0 44 5 60 26 85 14 17 28 31 30 31 2 0 4 -38 4 -85z
m-1190 -57 c0 -24 -4 -28 -30 -28 -29 0 -30 2 -30 46 l0 45 30 -18 c22 -13 30
-25 30 -45z m422 17 c-4 -42 -6 -45 -33 -45 -24 0 -29 4 -29 24 0 21 40 66 59
66 3 0 5 -20 3 -45z m-1132 -5 l32 -40 -36 0 c-35 0 -36 1 -36 40 0 22 2 40 4
40 2 0 19 -18 36 -40z m110 0 c0 -38 -2 -40 -30 -40 -16 0 -30 2 -30 6 0 5 53
74 58 74 1 0 2 -18 2 -40z m1710 0 c0 -38 -2 -40 -30 -40 -16 0 -30 3 -30 6 0
7 51 74 56 74 2 0 4 -18 4 -40z m-115 3 c32 -36 31 -43 -5 -43 -28 0 -30 3
-30 35 0 19 2 35 5 35 3 0 17 -12 30 -27z"/>
<path d="M2626 6553 c-12 -12 -6 -33 9 -33 8 0 15 6 15 14 0 17 -14 28 -24 19z"/>
<path d="M2547 6396 c-48 -51 -87 -97 -87 -102 0 -6 86 -106 160 -187 16 -18
21 -14 104 78 47 54 86 100 86 104 0 8 -159 195 -169 199 -4 1 -47 -40 -94
-92z m78 -101 c0 -80 -3 -145 -7 -145 -3 0 -18 14 -32 31 -23 27 -26 39 -26
110 0 72 3 83 28 115 15 18 29 34 32 34 3 0 5 -65 5 -145z m85 -5 c-1 -79 -3
-87 -30 -120 l-30 -34 0 154 1 155 29 -35 c28 -32 30 -39 30 -120z m-170 3 l0
-58 -26 27 -27 26 22 31 c12 17 24 31 27 31 2 0 4 -26 4 -57z m223 22 c17 -24
17 -26 0 -50 -26 -36 -33 -31 -33 25 0 56 7 61 33 25z"/>
<path d="M2505 6419 c-10 -15 1 -23 20 -15 9 3 13 10 10 16 -8 13 -22 13 -30
-1z"/>
<path d="M2735 6420 c-3 -6 1 -13 10 -16 19 -8 30 0 20 15 -8 14 -22 14 -30 1z"/>
<path d="M2406 6301 c-7 -11 18 -33 27 -24 4 3 7 12 7 20 0 15 -26 18 -34 4z"/>
<path d="M2835 6300 c-11 -17 5 -32 21 -19 7 6 11 15 8 20 -7 12 -21 11 -29
-1z"/>
<path d="M2500 6175 c0 -10 7 -15 18 -13 21 4 19 22 -2 26 -10 2 -16 -3 -16
-13z"/>
<path d="M2737 6184 c-9 -10 2 -24 19 -24 8 0 14 7 14 15 0 15 -21 21 -33 9z"/>
<path d="M2626 6063 c-12 -12 -6 -33 9 -33 8 0 15 6 15 14 0 17 -14 28 -24 19z"/>
<path d="M4336 6553 c-12 -12 -6 -33 9 -33 8 0 15 6 15 14 0 17 -14 28 -24 19z"/>
<path d="M4252 6394 c-46 -52 -82 -98 -80 -104 2 -5 41 -53 88 -106 l85 -97
43 49 c24 27 64 72 89 101 l45 52 -24 30 c-72 89 -144 170 -153 170 -5 0 -47
-43 -93 -95z m78 -101 l0 -147 -30 29 c-29 28 -30 32 -30 113 0 76 3 89 26
119 14 18 27 33 30 33 2 0 4 -66 4 -147z m63 113 c25 -32 27 -42 27 -119 0
-79 -1 -85 -29 -111 l-30 -29 -3 147 c-2 80 -1 146 2 146 3 0 17 -16 33 -34z
m-143 -113 l0 -56 -25 23 c-14 13 -25 28 -25 34 0 9 39 56 47 56 2 0 3 -26 3
-57z m224 21 c18 -26 18 -26 -8 -52 l-26 -27 0 53 c0 58 6 63 34 26z"/>
<path d="M4210 6415 c0 -10 7 -15 18 -13 21 4 19 22 -2 26 -10 2 -16 -3 -16
-13z"/>
<path d="M4445 6421 c-7 -12 12 -24 25 -16 11 7 4 25 -10 25 -5 0 -11 -4 -15
-9z"/>
<path d="M4117 6304 c-13 -13 -7 -24 14 -24 11 0 19 5 17 12 -5 14 -22 21 -31
12z"/>
<path d="M4542 6294 c4 -21 22 -23 26 -1 2 10 -3 17 -13 17 -10 0 -15 -6 -13
-16z"/>
<path d="M4210 6175 c0 -10 7 -15 18 -13 21 4 19 22 -2 26 -10 2 -16 -3 -16
-13z"/>
<path d="M4445 6181 c-7 -12 12 -24 25 -16 11 7 4 25 -10 25 -5 0 -11 -4 -15
-9z"/>
<path d="M4336 6063 c-12 -12 -6 -33 9 -33 8 0 15 6 15 14 0 17 -14 28 -24 19z"/>
<path d="M4640 5806 c-514 -307 -1136 -670 -1150 -670 -8 0 -304 170 -657 377
-353 207 -646 377 -652 377 -5 0 -12 -129 -16 -297 -11 -426 10 -760 61 -983
18 -79 54 -192 65 -204 4 -5 103 47 221 117 117 69 385 227 596 351 l383 225
518 -304 c285 -167 553 -324 596 -349 42 -25 80 -46 85 -46 17 0 77 217 99
360 24 155 32 318 32 660 -1 347 -6 481 -20 479 -3 0 -76 -42 -161 -93z m150
29 c0 -23 -3 -25 -47 -25 l-48 0 40 24 c51 31 55 31 55 1z m-2547 -2 l32 -18
-39 -3 c-44 -4 -49 -1 -40 22 8 20 8 20 47 -1z m123 -74 c30 -17 54 -32 54
-35 0 -2 -52 -4 -115 -4 l-115 0 0 28 c0 39 5 42 68 42 43 0 66 -7 108 -31z
m2426 0 c3 -18 0 -33 -7 -35 -6 -3 -60 -3 -121 -2 l-109 3 55 32 c46 27 65 33
116 33 61 0 62 0 66 -31z m-2274 -89 l47 -30 -187 0 -188 0 0 30 0 30 140 0
c138 0 141 0 188 -30z m2280 -2 l3 -28 -192 0 c-106 0 -189 3 -186 7 4 3 24
17 44 29 36 22 47 24 183 21 l145 -2 3 -27z m-2133 -84 c25 -14 45 -28 45 -30
0 -2 -117 -4 -260 -4 l-260 0 0 28 c0 16 2 31 4 33 2 2 99 3 215 2 208 -2 212
-3 256 -29z m2133 -4 l3 -30 -265 0 c-146 0 -266 2 -266 5 0 2 22 17 49 32
l48 28 214 -2 214 -2 3 -31z m-1994 -76 c25 -14 46 -28 46 -30 0 -2 -148 -4
-330 -4 l-330 0 0 30 0 30 284 0 283 0 47 -26z m1996 -4 l0 -30 -337 0 c-185
0 -333 3 -329 7 3 4 23 17 44 29 36 21 46 22 330 23 l292 1 0 -30z m-1844 -86
c24 -14 44 -28 44 -30 0 -2 -182 -4 -405 -4 -351 0 -406 2 -411 15 -4 8 -4 22
0 30 5 13 55 15 366 15 l361 0 45 -26z m1844 -4 l0 -30 -412 0 c-226 0 -408 3
-405 7 4 3 24 17 44 29 38 23 39 23 406 24 l367 0 0 -30z m-1700 -81 c27 -17
50 -31 50 -32 0 -1 -217 -1 -482 0 -430 2 -483 4 -486 18 -10 46 -18 45 438
45 l430 0 50 -31z m1698 1 l-3 -30 -482 -3 c-265 -1 -479 0 -476 3 2 3 23 17
46 32 l42 27 438 0 438 1 -3 -30z m-1552 -86 c24 -14 44 -28 44 -30 0 -2 -247
-4 -550 -4 l-550 0 0 30 0 30 506 0 505 0 45 -26z m1554 -4 l0 -30 -557 0
c-306 0 -553 3 -550 7 4 3 24 17 44 29 l38 23 513 1 512 0 0 -30z m-1410 -81
c27 -17 50 -33 50 -35 0 -2 -281 -4 -625 -4 l-625 0 0 35 0 35 575 0 575 0 50
-31z m1410 1 c0 -17 -6 -33 -12 -35 -7 -3 -292 -4 -633 -3 l-620 3 55 32 55
33 578 0 577 0 0 -30z m-1407 -90 l-52 -30 -576 0 -575 0 0 30 0 30 628 0 627
0 -52 -30z m1407 23 c0 -5 -3 -18 -6 -30 l-6 -23 -575 0 -574 0 -45 26 c-24
14 -44 28 -44 30 0 2 281 4 625 4 344 0 625 -3 625 -7z m-1510 -80 c0 -5 -23
-20 -50 -35 l-50 -28 -494 0 -494 0 -4 30 c-3 17 -2 32 0 35 9 8 1092 6 1092
-2z m1498 -25 l-3 -33 -497 -3 -497 -2 -51 31 c-27 17 -50 33 -50 35 0 2 248
4 551 4 l550 0 -3 -32z m-1684 -88 l-52 -30 -423 2 -424 3 -3 28 -3 27 478 0
478 0 -51 -30z m1676 0 l0 -30 -426 0 -425 0 -45 26 c-24 14 -44 28 -44 30 0
2 212 4 470 4 l470 0 0 -30z m-1780 -57 c0 -5 -23 -20 -50 -35 l-50 -28 -339
0 -339 0 -6 23 c-3 12 -6 28 -6 35 0 9 86 12 395 12 217 0 395 -3 395 -7z
m1772 2 c2 -3 3 -18 0 -35 l-4 -30 -343 0 -342 0 -47 26 c-25 14 -48 30 -51
35 -6 9 777 13 787 4z m-1922 -96 c-72 -49 -75 -49 -355 -49 -222 0 -265 2
-265 14 0 8 -3 21 -6 30 -6 14 26 16 317 16 224 0 319 -3 309 -11z m1910 -19
l0 -30 -271 0 -270 0 -45 26 c-24 14 -44 28 -44 30 0 2 142 4 315 4 l315 0 0
-30z m-2050 -57 c0 -5 -22 -20 -49 -35 -48 -28 -51 -28 -229 -28 -155 0 -181
2 -186 16 -17 44 -18 43 227 47 127 1 233 3 235 5 1 1 2 -1 2 -5z m2036 -19
c-3 -9 -6 -22 -6 -30 0 -12 -32 -14 -185 -14 -183 0 -184 0 -230 27 -25 16
-45 30 -45 33 0 3 106 4 236 2 208 -2 235 -5 230 -18z m-2218 -94 c-45 -28
-54 -30 -152 -30 -85 0 -105 3 -110 16 -17 43 -14 44 152 44 l157 0 -47 -30z
m2202 23 c0 -5 -3 -18 -6 -30 -6 -22 -11 -23 -111 -23 -94 0 -109 2 -149 26
-24 14 -44 28 -44 30 0 2 70 4 155 4 85 0 155 -3 155 -7z m-2311 -86 c-11 -9
-110 -67 -113 -67 -4 0 -26 58 -26 66 0 4 133 10 139 7 2 -2 2 -4 0 -6z m2279
-30 c-6 -18 -12 -33 -13 -35 -4 -5 -115 59 -115 66 0 4 31 6 69 4 l69 -4 -10
-31z"/>
<path d="M3136 5843 c-15 -12 -36 -23 -47 -23 -18 0 -19 -9 -19 -215 l0 -215
176 0 c161 0 178 -2 201 -20 14 -11 33 -20 43 -20 10 0 29 9 43 20 23 18 40
20 201 20 l176 0 0 215 c0 206 -1 215 -19 215 -11 0 -32 11 -47 23 -26 22 -29
23 -58 9 -27 -14 -38 -14 -110 1 -100 21 -110 21 -152 1 -31 -15 -37 -15 -68
0 -42 20 -49 20 -150 -1 -74 -15 -85 -15 -112 -1 -29 14 -32 14 -58 -9z m334
-8 c6 -4 10 -76 10 -195 l0 -188 -32 15 c-27 14 -42 15 -100 5 -88 -15 -151
-15 -166 0 -8 8 -12 65 -12 188 l0 177 53 -4 c28 -2 81 2 117 10 60 13 100 10
130 -8z m273 1 l67 -1 0 -177 c0 -165 -1 -178 -19 -188 -26 -13 -75 -13 -159
2 -58 10 -73 9 -100 -5 l-32 -15 0 188 c0 222 -4 214 105 204 39 -4 100 -7
138 -8z m-549 -385 c25 -12 42 -12 110 -1 97 16 129 15 162 -6 22 -15 26 -15
51 1 23 15 38 17 107 10 111 -11 163 -10 181 5 12 10 15 45 15 196 l0 184 25
-16 25 -16 0 -183 c0 -134 -3 -185 -12 -192 -23 -19 -69 -21 -146 -7 -101 18
-156 17 -192 -1 -27 -14 -33 -14 -62 1 -23 12 -47 15 -92 10 -193 -17 -214
-18 -234 -7 -21 11 -22 17 -22 195 0 179 1 184 23 199 l22 14 5 -186 5 -186
29 -14z"/>
<path d="M3325 5764 c-33 -8 -77 -14 -97 -12 -21 2 -38 1 -38 -3 0 -17 56 -18
121 -3 45 10 89 14 118 10 31 -4 42 -3 35 4 -18 18 -77 20 -139 4z"/>
<path d="M3315 5664 c-33 -8 -75 -14 -92 -12 -18 2 -33 1 -33 -3 0 -13 43 -15
95 -5 28 6 80 10 117 10 38 0 64 4 59 9 -16 16 -86 16 -146 1z"/>
<path d="M3315 5564 c-33 -8 -75 -13 -92 -10 -20 3 -33 0 -33 -6 0 -7 23 -8
73 -3 39 4 102 8 139 9 37 1 63 5 59 9 -16 16 -86 16 -146 1z"/>
<path d="M3538 5773 c-34 -9 -18 -21 20 -16 21 3 72 -2 113 -11 53 -12 82 -14
99 -7 22 9 20 10 -20 11 -25 0 -72 7 -105 15 -61 15 -77 16 -107 8z"/>
<path d="M3538 5673 c-37 -9 -16 -18 45 -19 34 0 85 -5 112 -10 53 -10 95 -8
95 5 0 4 -13 6 -29 3 -16 -2 -61 3 -100 12 -70 16 -91 18 -123 9z"/>
<path d="M3538 5573 c-36 -9 -16 -18 45 -19 34 -1 95 -5 135 -9 51 -5 72 -4
72 3 0 7 -11 9 -29 6 -16 -3 -61 1 -99 10 -71 16 -92 18 -124 9z"/>
<path d="M3565 4968 c-11 -6 -29 -19 -40 -28 -12 -11 -42 -19 -78 -22 -46 -4
-63 -10 -86 -32 -21 -20 -43 -30 -76 -34 -27 -3 -49 -11 -52 -19 -7 -18 26
-81 52 -99 23 -16 8 -18 -29 -4 -19 7 -26 17 -26 35 0 28 -3 29 -31 15 -31
-17 -25 -66 11 -85 16 -8 37 -15 48 -15 15 0 18 -6 14 -30 -3 -21 0 -32 12
-36 25 -9 20 -51 -9 -70 -22 -14 -27 -14 -54 -1 -16 8 -32 12 -35 9 -12 -11
-6 -58 10 -81 16 -22 16 -23 -5 -12 -11 7 -21 19 -21 28 0 13 -3 13 -15 3 -18
-15 -20 -71 -3 -88 33 -33 -38 -14 -111 30 -35 21 -59 44 -67 64 -11 27 -10
34 17 74 16 23 29 47 29 52 0 22 -51 58 -82 58 -49 0 -64 -13 -33 -30 28 -15
29 -18 11 -42 -12 -16 -15 -16 -52 3 -44 22 -77 19 -111 -13 -30 -28 -29 -41
2 -36 18 4 34 -3 58 -24 34 -32 33 -32 -27 -4 -38 17 -41 17 -79 0 -27 -13
-44 -29 -54 -52 -15 -36 -10 -53 9 -34 14 14 58 16 58 3 0 -5 -13 -11 -29 -14
-26 -6 -80 -62 -69 -73 3 -2 19 1 36 7 33 11 58 3 93 -32 10 -10 30 -19 43
-19 13 0 29 -7 36 -15 7 -9 29 -15 50 -15 21 0 40 -5 42 -11 2 -6 22 -14 43
-18 l40 -6 -50 -30 c-28 -17 -57 -33 -65 -36 -21 -9 -50 8 -50 30 0 10 -9 30
-21 45 -17 22 -29 26 -68 26 -39 0 -53 -5 -76 -27 l-28 -28 34 -3 c22 -2 46
-15 67 -37 l33 -33 -45 5 c-32 4 -53 1 -71 -11 -33 -22 -57 -60 -49 -79 5 -14
9 -14 27 -2 13 8 34 11 50 8 l27 -5 -25 -26 c-32 -31 -41 -66 -26 -98 13 -29
27 -31 34 -4 3 11 14 20 24 20 11 0 28 7 39 15 27 21 31 19 26 -15 -6 -41 14
-85 44 -99 14 -6 26 -11 27 -11 2 0 4 17 4 38 3 97 23 142 62 142 14 -1 13 -3
-1 -14 -27 -20 -22 -26 18 -26 29 0 44 8 75 39 41 40 46 42 29 10 -8 -14 -7
-19 2 -20 31 -3 45 4 77 39 20 22 29 28 22 15 -10 -19 -9 -23 3 -23 28 0 47
13 71 49 25 35 35 28 15 -10 -20 -36 10 -20 66 35 30 30 54 52 54 50 0 -11
-23 -50 -42 -70 -19 -22 -19 -22 3 -38 13 -9 35 -16 49 -17 14 -1 36 -5 50
-10 19 -6 12 -8 -27 -5 -29 2 -57 -2 -63 -8 -13 -13 -13 -49 2 -98 10 -35 9
-41 -9 -59 -24 -24 -78 -28 -123 -9 -20 8 -34 25 -46 56 -23 62 -45 78 -105
78 -41 0 -55 -5 -77 -27 l-27 -27 35 0 c27 0 43 -9 69 -35 38 -39 34 -46 -8
-14 -24 17 -36 20 -72 14 -40 -7 -89 -42 -89 -64 0 -5 14 -7 33 -4 24 4 37 0
51 -16 19 -21 19 -21 -1 -21 -29 0 -70 -35 -77 -66 -9 -34 -1 -41 22 -21 17
15 22 16 49 2 29 -14 41 -13 108 10 18 6 19 6 3 -7 -27 -23 -40 -66 -27 -91
20 -38 51 -50 42 -17 -4 14 2 23 21 31 14 7 33 23 42 37 l16 25 24 -26 c30
-33 55 -40 89 -27 18 7 25 15 21 25 -4 12 3 15 34 15 41 0 62 16 39 31 -9 5 0
6 22 3 42 -7 55 6 37 36 -11 17 -11 22 2 30 8 5 27 10 42 10 l27 0 -27 -27
-27 -28 29 -5 c49 -9 40 -25 -15 -25 -41 0 -55 -5 -70 -24 -21 -26 -28 -64 -7
-43 14 14 54 16 62 3 3 -5 -8 -14 -26 -20 -44 -15 -68 -40 -68 -68 0 -23 1
-23 24 -8 20 13 29 14 46 5 12 -6 28 -9 36 -6 20 8 17 -2 -11 -36 -27 -32 -32
-69 -12 -87 10 -8 19 -4 36 19 12 17 30 30 39 30 10 0 35 16 55 35 50 47 74
55 165 55 78 0 122 16 122 44 0 7 16 20 35 29 20 9 39 25 42 34 4 10 22 32 40
49 38 36 46 72 12 54 -11 -7 -23 -9 -26 -6 -3 3 1 8 10 12 9 3 30 28 47 55 16
27 35 49 42 49 8 1 6 6 -5 15 -20 15 -42 11 -69 -13 -17 -14 -18 -13 -18 11 0
43 10 57 36 51 34 -9 90 13 119 47 19 23 25 42 25 75 0 77 -28 113 -170 214
-146 104 -171 141 -130 193 26 32 82 37 132 11 82 -43 205 -194 158 -194 -5 0
-10 7 -10 15 0 22 -27 19 -40 -4 -18 -35 -12 -61 20 -79 16 -9 30 -24 30 -32
0 -8 9 -34 20 -58 15 -33 29 -47 62 -62 118 -54 243 7 243 117 0 37 -5 49 -28
69 -15 13 -38 24 -49 24 l-21 0 21 -23 c12 -13 22 -34 22 -47 0 -22 -1 -22
-18 -7 -19 17 -53 22 -65 10 -4 -3 1 -15 10 -25 13 -14 15 -23 7 -35 -19 -30
-34 -26 -34 9 0 18 -3 42 -6 53 -3 14 2 23 18 30 26 11 44 54 34 81 -6 16 -8
16 -22 -4 -29 -42 -58 -29 -133 62 -39 46 -87 98 -108 115 -114 94 -248 106
-308 27 -74 -97 -32 -197 129 -303 128 -86 168 -132 146 -172 -23 -43 -85 -36
-95 11 -8 36 -57 93 -98 115 -17 8 -62 24 -100 34 -79 22 -119 41 -148 70 -22
22 -25 49 -6 49 8 0 24 11 37 25 l23 25 -29 0 c-16 0 -36 5 -44 10 -11 7 -5 8
20 4 20 -2 46 1 60 8 27 14 40 46 18 45 -29 -1 -48 3 -48 11 0 4 16 8 35 8 32
0 75 26 75 46 0 4 -13 8 -30 8 -19 0 -34 7 -42 20 -7 11 -20 20 -29 20 -9 0
-22 7 -30 16 -12 14 -14 14 -26 -2 -11 -16 -13 -16 -13 -2 0 26 17 30 49 13
46 -23 103 -19 135 10 30 28 37 72 9 60 -10 -4 -29 -9 -43 -12 -21 -3 -21 -2
6 11 55 25 77 73 53 117 -10 19 -11 19 -40 -6 -38 -31 -74 -36 -41 -5 12 12
22 32 22 45 0 24 -1 24 -35 9 -38 -15 -43 -10 -20 20 22 29 18 39 -14 33 -53
-11 -70 0 -73 48 -3 40 -5 43 -23 33z m-10 -377 c-5 -20 -8 -22 -16 -10 -5 7
-9 24 -9 36 0 17 -4 21 -17 16 -14 -5 -15 -2 -8 28 4 19 7 43 6 54 -14 172
-15 163 16 191 l28 26 3 -159 c1 -87 0 -169 -3 -182z m-75 238 c0 -52 -2 -60
-16 -55 -9 3 -22 6 -30 6 -22 0 -17 38 6 45 11 3 20 11 20 16 0 5 -9 9 -20 9
-13 0 -20 7 -20 20 0 16 7 20 30 20 l30 0 0 -61z m-92 -54 c-2 -1 -15 -5 -30
-9 -27 -6 -28 -5 -28 33 0 30 5 41 19 46 11 3 23 13 27 23 6 12 10 0 12 -37 2
-29 2 -54 0 -56z m251 74 c-21 -13 -49 -11 -49 4 0 9 10 12 31 9 22 -3 27 -7
18 -13z m-329 -59 c0 -47 -14 -51 -35 -10 -21 40 -19 50 10 50 23 0 25 -4 25
-40z m314 20 c29 -11 35 -30 9 -30 -15 0 -15 -1 0 -18 12 -13 17 -37 17 -80 0
-63 -11 -78 -30 -42 -6 11 -15 18 -21 15 -5 -4 -9 28 -9 79 0 47 2 86 4 86 3
0 16 -4 30 -10z m71 -10 c-3 -5 -11 -10 -16 -10 -6 0 -7 5 -4 10 3 6 11 10 16
10 6 0 7 -4 4 -10z m85 -47 c0 -5 -5 -15 -10 -23 -8 -12 -10 -11 -10 8 0 12 5
22 10 22 6 0 10 -3 10 -7z m-566 -18 c3 -8 1 -15 -4 -15 -6 0 -10 7 -10 15 0
8 2 15 4 15 2 0 6 -7 10 -15z m266 6 c0 -4 -21 -9 -47 -10 -27 -1 -56 -4 -65
-7 -17 -5 -25 6 -13 18 8 7 125 6 125 -1z m-140 -11 c0 -5 -8 -10 -17 -10 -15
0 -16 2 -3 10 19 12 20 12 20 0z m392 -15 c-3 -20 -10 -25 -33 -25 -21 0 -29
5 -29 18 0 25 9 32 40 32 24 0 27 -3 22 -25z m-242 -12 c0 -16 -19 -37 -26
-30 -4 4 -14 1 -22 -6 -12 -10 -16 -9 -20 1 -3 9 -8 10 -17 2 -9 -7 -16 -6
-24 4 -12 14 6 20 102 35 4 0 7 -2 7 -6z m-130 -23 c0 -5 -5 -10 -11 -10 -5 0
-7 5 -4 10 3 6 8 10 11 10 2 0 4 -4 4 -10z m-400 -30 c0 -5 -2 -10 -4 -10 -3
0 -8 5 -11 10 -3 6 -1 10 4 10 6 0 11 -4 11 -10z m346 -17 c-10 -10 -19 5 -10
18 6 11 8 11 12 0 2 -7 1 -15 -2 -18z m68 11 c18 -7 22 -64 6 -94 -10 -19 -11
-19 -30 0 -13 13 -20 33 -20 60 0 41 9 47 44 34z m106 -21 c-1 -16 -7 -39 -15
-53 l-14 -25 -7 33 c-3 17 -10 32 -15 32 -5 0 -9 6 -9 14 0 13 9 17 53 25 4 0
7 -11 7 -26z m249 10 c3 -2 0 -8 -6 -14 -16 -16 -47 -7 -51 14 -3 15 1 17 25
11 15 -4 30 -9 32 -11z m-759 -28 c0 -8 -8 -30 -17 -50 -16 -33 -16 -37 0 -70
10 -21 17 -60 17 -94 0 -56 -1 -60 -29 -69 -39 -14 -45 -5 -21 28 24 34 25 39
3 34 -16 -5 -18 4 -18 76 0 62 3 79 13 75 9 -3 11 1 7 16 -4 12 0 30 9 44 18
28 36 33 36 10z m-160 -9 c0 -11 -19 -15 -25 -6 -3 5 1 10 9 10 9 0 16 -2 16
-4z m68 -130 l-3 -110 -27 -7 c-35 -9 -35 -2 -1 33 l27 28 -27 0 c-27 0 -36
13 -16 26 8 4 8 9 0 17 -19 19 -12 37 14 37 34 0 34 34 0 56 -20 13 -23 20
-15 35 9 16 14 17 31 6 18 -11 19 -21 17 -121z m618 96 c-18 -16 -18 -16 -6 6
6 13 14 21 18 18 3 -4 -2 -14 -12 -24z m409 7 c9 -14 4 -18 -33 -25 -25 -5
-32 -3 -32 9 0 22 54 36 65 16z m-264 -9 c5 0 9 -12 9 -26 0 -25 -1 -26 -22
-12 -28 19 -38 54 -13 44 9 -3 21 -6 26 -6z m330 0 c10 -6 19 -17 19 -24 0
-12 -6 -12 -30 -3 -16 6 -30 17 -30 24 0 16 15 17 41 3z m-396 -48 c-7 -7 -55
27 -55 39 0 5 13 0 30 -12 16 -13 28 -25 25 -27z m240 11 c-9 -34 -9 -95 1
-148 6 -36 5 -38 -9 -27 -25 21 -50 97 -43 128 9 33 35 74 48 74 6 0 7 -11 3
-27z m-525 -377 l-20 -20 0 26 c0 15 -5 30 -10 33 -6 4 -10 55 -9 128 1 99 5
124 18 134 15 11 14 12 -1 13 -31 0 -23 45 10 56 l27 9 3 -179 c2 -169 1 -181
-18 -200z m185 346 c-3 -3 -16 5 -28 17 l-22 23 28 -17 c15 -10 25 -20 22 -23z
m582 16 c23 -21 31 -48 15 -48 -10 0 -62 53 -62 63 0 14 24 6 47 -15z m-1269
0 c23 -23 13 -38 -23 -38 -31 0 -35 3 -35 25 0 19 5 25 23 25 13 0 28 -5 35
-12z m432 -4 c0 -8 -4 -12 -10 -9 -5 3 -10 10 -10 16 0 5 5 9 10 9 6 0 10 -7
10 -16z m176 -22 c-4 -3 -12 0 -19 8 -9 10 -9 11 1 6 7 -5 12 -1 13 11 1 17 2
17 6 0 3 -10 2 -21 -1 -25z m139 22 c27 -18 35 -47 10 -38 -19 8 -19 -10 1
-52 20 -42 13 -52 -21 -30 -25 16 -35 59 -16 71 6 3 6 17 1 35 -10 35 -8 36
25 14z m162 10 c-3 -3 -12 -4 -19 -1 -8 3 -5 6 6 6 11 1 17 -2 13 -5z m-987
-14 c0 -5 -5 -10 -11 -10 -5 0 -7 5 -4 10 3 6 8 10 11 10 2 0 4 -4 4 -10z
m679 -232 c1 -194 -1 -202 -39 -178 -12 7 -12 12 4 29 23 25 33 96 16 116 -17
21 -28 19 -33 -7 -2 -13 -5 44 -6 125 l-1 149 29 -24 30 -23 0 -187z m236 196
c30 -30 27 -39 -10 -30 -18 5 -25 13 -25 31 0 31 3 31 35 -1z m-162 3 c16 -11
17 -32 15 -197 l-3 -185 -27 -3 -28 -3 0 186 c0 134 3 184 11 179 8 -4 9 0 4
15 -7 24 3 27 28 8z m697 -87 c0 -23 -1 -23 -30 10 -16 19 -29 46 -29 60 0 24
0 24 29 -10 16 -19 30 -46 30 -60z m-940 28 c0 -25 -26 -22 -44 4 -23 32 -20
38 14 25 18 -7 30 -19 30 -29z m-170 -65 c0 -36 -4 -53 -12 -53 -7 0 -24 -3
-37 -7 -24 -6 -24 -6 -8 18 18 26 23 64 7 54 -6 -4 -10 10 -10 35 l0 41 30
-18 c27 -16 30 -22 30 -70z m-340 67 c0 -5 -7 -10 -16 -10 -8 0 -12 5 -9 10 3
6 10 10 16 10 5 0 9 -4 9 -10z m85 0 c3 -6 -6 -15 -20 -20 -38 -14 -45 -13
-45 10 0 15 7 20 29 20 17 0 33 -5 36 -10z m319 -40 c26 -9 26 -10 26 -127 0
-100 -3 -123 -20 -150 -34 -56 -36 -51 -40 87 -2 66 0 76 19 88 27 18 27 30 0
34 -18 2 -22 10 -23 41 -1 40 1 42 38 27z m92 -20 c19 0 20 -207 0 -232 -19
-25 -26 -22 -26 11 0 17 -4 33 -10 36 -6 3 -10 49 -10 102 0 83 2 94 16 89 9
-3 22 -6 30 -6z m676 -17 c29 -28 37 -53 16 -53 -19 0 -58 42 -58 62 0 25 9
23 42 -9z m342 -4 c24 -25 27 -32 15 -40 -11 -7 -12 -12 -1 -29 13 -21 17
-160 4 -160 -4 0 -17 7 -29 15 -20 14 -22 26 -25 130 -2 63 -1 115 2 115 3 0
18 -14 34 -31z m-662 -126 c5 -188 0 -250 -20 -257 -9 -3 -23 -9 -29 -12 -10
-4 -13 10 -13 53 0 53 3 61 25 73 32 17 33 42 3 38 -23 -3 -23 -1 -26 125 l-3
128 30 -16 30 -15 3 -117z m578 82 c11 4 20 2 20 -4 0 -13 -45 -25 -59 -16 -6
3 -11 13 -11 22 0 12 3 13 15 3 8 -6 23 -9 35 -5z m165 5 c-3 -5 -13 -10 -21
-10 -8 0 -14 5 -14 10 0 6 9 10 21 10 11 0 17 -4 14 -10z m-340 -16 c21 -14
36 -54 20 -54 -17 0 -55 35 -55 51 0 23 4 23 35 3z m-315 -149 c0 -63 -4 -116
-9 -119 -4 -3 -11 -19 -14 -36 -5 -21 -11 -28 -22 -24 -13 5 -15 32 -15 171
l0 164 30 -21 30 -21 0 -114z m-905 135 c-3 -5 -13 -10 -21 -10 -8 0 -14 5
-14 10 0 6 9 10 21 10 11 0 17 -4 14 -10z m53 -38 c4 -36 -3 -39 -29 -16 -15
13 -16 20 -6 35 17 27 31 18 35 -19z m242 -123 c-7 -15 -20 -35 -31 -45 -19
-17 -19 -15 -19 74 0 89 1 92 28 106 l27 14 3 -61 c2 -33 -2 -73 -8 -88z
m1117 109 c-3 -7 -5 -2 -5 12 0 14 2 19 5 13 2 -7 2 -19 0 -25z m-430 8 c1 -1
3 -71 3 -156 1 -163 -3 -176 -42 -129 -15 18 -15 24 -2 61 16 46 19 98 5 98
-5 0 -12 -6 -14 -12 -3 -7 -6 24 -6 70 l-1 82 28 -6 c15 -4 28 -7 29 -8z m327
-7 c18 -14 26 -30 26 -51 l0 -31 -35 39 c-51 58 -45 86 9 43z m375 -31 c-5
-21 -22 -47 -37 -58 l-27 -22 -5 29 c-7 38 0 84 12 77 5 -3 7 -17 4 -30 -4
-13 -2 -24 3 -24 15 0 41 42 41 64 0 13 3 17 10 10 6 -6 6 -22 -1 -46z m-609
-224 c0 -211 -2 -233 -16 -227 -30 11 4 -37 34 -49 l27 -11 -33 -7 c-18 -4
-42 -5 -54 -3 -18 5 -19 11 -14 67 7 68 7 73 0 313 l-5 172 31 -10 30 -11 0
-234z m-850 188 c0 -53 -2 -60 -25 -70 -39 -18 -41 -16 -39 40 2 41 7 55 26
70 12 9 26 18 31 18 4 0 7 -26 7 -58z m-102 18 c15 0 16 -106 2 -115 -5 -3
-10 -24 -10 -46 0 -35 -3 -39 -25 -39 -30 0 -29 -2 -9 46 11 26 13 39 5 42 -7
2 -11 32 -11 74 0 68 1 70 18 55 10 -10 24 -17 30 -17z m1019 -12 c22 -21 23
-27 23 -185 0 -156 -1 -163 -20 -163 -26 0 -25 -15 1 -34 30 -20 18 -46 -21
-46 l-30 0 0 225 c0 240 1 246 47 203z m-1087 -29 c0 -11 -54 -18 -64 -9 -5 5
-6 15 -3 24 5 12 11 13 36 3 17 -6 31 -14 31 -18z m1320 -24 c0 -16 -5 -37
-10 -45 -7 -11 -10 3 -10 45 0 42 3 56 10 45 5 -8 10 -28 10 -45z m-1440 30
c0 -8 -7 -15 -16 -15 -14 0 -14 3 -4 15 7 8 14 15 16 15 2 0 4 -7 4 -15z
m1640 0 c6 3 10 -3 10 -15 0 -32 -54 -24 -58 8 -3 21 -1 22 17 12 12 -6 26 -8
31 -5z m-351 -100 c31 -10 27 -37 -3 -29 -23 6 -25 3 -29 -43 -2 -29 -4 -14
-5 37 0 57 2 78 8 63 5 -12 18 -24 29 -28z m-1169 27 c0 -5 -11 -19 -25 -32
-25 -23 -25 -23 -40 -4 -20 27 -19 32 13 37 48 7 52 7 52 -1z m1270 -48 c-14
-16 -60 -19 -60 -4 0 5 10 15 23 21 12 7 26 19 32 28 8 14 10 13 13 -7 2 -13
-2 -30 -8 -38z m-592 -71 c-3 -96 -3 -97 -30 -104 l-28 -7 0 98 c0 85 2 99 18
103 43 11 43 11 40 -90z m-770 70 c-2 -9 -8 -18 -15 -20 -7 -3 -9 3 -6 16 6
25 26 28 21 4z m682 -113 c0 -80 -4 -130 -10 -130 -17 0 -50 39 -50 60 0 12 7
32 17 46 14 21 15 34 6 82 -12 64 -10 72 18 72 18 0 19 -8 19 -130z m-345 81
c-3 -6 -11 -8 -17 -5 -6 4 -5 9 3 15 16 10 23 4 14 -10z m77 -32 c25 -50 25
-208 0 -239 -15 -18 -22 -21 -36 -13 -18 10 -18 11 1 24 34 24 36 38 8 49 -22
8 -24 12 -13 29 9 15 9 23 0 34 -14 16 -6 27 20 27 23 0 23 11 -2 43 -22 28
-28 91 -7 85 6 -3 20 -20 29 -39z m-282 -14 c0 -8 -4 -15 -10 -15 -5 0 -10 7
-10 15 0 8 5 15 10 15 6 0 10 -7 10 -15z m894 -58 c45 -31 30 -77 -41 -125
-44 -31 -57 -28 -87 18 -26 39 -35 45 -66 40 -19 -2 -8 9 22 24 15 7 24 22 26
41 3 24 1 28 -9 18 -31 -30 -74 2 -47 34 12 15 61 14 101 -2 12 -5 17 -2 17 8
0 11 8 8 29 -11 15 -15 40 -35 55 -45z m-696 10 c6 -5 12 -18 12 -28 0 -21
-29 -25 -60 -9 -16 9 -18 14 -8 34 10 24 27 25 56 3z m-78 3 c0 -5 -7 -10 -16
-10 -8 0 -12 5 -9 10 3 6 10 10 16 10 5 0 9 -4 9 -10z m1016 -35 c-30 -39 -46
-45 -46 -16 0 17 59 63 69 55 2 -2 -8 -19 -23 -39z m-448 -6 c-15 -10 -28 -2
-28 17 0 12 4 12 20 2 13 -8 16 -15 8 -19z m-308 -78 l0 -75 -30 29 c-26 25
-30 35 -30 86 l0 57 30 -11 c30 -11 30 -12 30 -86z m90 24 c0 -57 -11 -69 -39
-42 -11 10 -12 5 -9 -25 2 -21 1 -38 -3 -38 -13 0 -17 28 -12 88 6 62 5 61 56
71 4 0 7 -24 7 -54z m-274 -5 c23 0 16 -27 -8 -34 -35 -9 -38 -8 -38 20 0 20
4 25 16 20 9 -3 22 -6 30 -6z m-96 -10 c0 -5 -5 -10 -11 -10 -5 0 -7 5 -4 10
3 6 8 10 11 10 2 0 4 -4 4 -10z m620 -15 c0 -25 -14 -34 -24 -16 -8 12 3 41
15 41 5 0 9 -11 9 -25z m390 -5 c0 -5 -4 -10 -10 -10 -5 0 -10 5 -10 10 0 6 5
10 10 10 6 0 10 -4 10 -10z m-300 -107 c0 -34 -4 -40 -30 -50 l-30 -11 0 78 0
78 30 -28 c23 -22 30 -37 30 -67z m84 27 c-1 -33 -5 -60 -8 -60 -3 0 -17 0
-31 0 -23 0 -25 4 -25 44 0 34 5 47 23 59 37 26 42 20 41 -43z m-258 3 c-11
-11 -17 4 -9 23 7 18 8 18 11 1 2 -10 1 -21 -2 -24z m62 11 c12 -4 22 -12 22
-19 0 -17 -52 -5 -58 13 -4 13 3 14 36 6z m23 -76 c2 -39 -2 -52 -24 -75 -25
-28 -37 -29 -37 -4 0 10 11 26 25 35 32 21 32 34 -2 38 l-28 4 25 11 c36 17
40 16 41 -9z m-81 -3 c0 -8 -9 -15 -20 -15 -11 0 -20 7 -20 15 0 8 9 15 20 15
11 0 20 -7 20 -15z m320 5 c0 -5 -9 -10 -20 -10 -11 0 -20 5 -20 10 0 6 9 10
20 10 11 0 20 -4 20 -10z m-330 -104 c0 -3 -4 -8 -10 -11 -5 -3 -10 -1 -10 4
0 6 5 11 10 11 6 0 10 -2 10 -4z"/>
<path d="M4900 2942 c-32 -31 -40 -47 -40 -75 0 -27 -6 -39 -21 -47 -21 -12
-18 -25 4 -25 8 0 13 -29 15 -87 l3 -86 -28 -10 c-23 -9 -15 -10 47 -10 46 0
65 3 50 7 -24 7 -25 10 -28 99 l-3 92 36 0 c24 0 35 4 35 15 0 11 -9 14 -32
13 -31 -3 -33 -1 -36 34 -5 55 13 82 50 74 26 -5 29 -3 26 17 -5 36 -35 32
-78 -11z"/>
<path d="M2020 2951 c0 -5 10 -11 23 -13 21 -3 22 -7 27 -150 6 -184 10 -191
125 -196 57 -3 81 0 100 12 50 33 59 59 64 200 6 126 7 131 29 134 48 7 19 22
-43 22 -62 0 -91 -15 -42 -22 21 -3 22 -7 25 -130 2 -121 2 -127 -22 -155 -22
-25 -31 -28 -86 -28 -53 0 -64 3 -81 24 -18 21 -19 38 -17 155 3 127 4 131 26
134 12 2 22 8 22 13 0 5 -34 9 -75 9 -41 0 -75 -4 -75 -9z"/>
<path d="M2770 2945 c-17 -20 -5 -45 20 -45 11 0 23 7 26 15 6 15 -11 45 -26
45 -4 0 -13 -7 -20 -15z"/>
<path d="M3881 2946 c-17 -20 -2 -48 23 -44 24 3 34 37 14 49 -18 12 -24 11
-37 -5z"/>
<path d="M4048 2909 c-12 -7 -18 -22 -18 -49 0 -30 -5 -40 -20 -45 -11 -3 -20
-11 -20 -16 0 -6 9 -7 20 -4 19 6 20 2 20 -84 0 -68 4 -93 16 -105 22 -22 57
-20 80 5 19 21 19 21 -1 19 -44 -5 -45 -3 -45 84 l0 85 33 3 c17 2 30 7 27 13
-3 5 -17 8 -32 6 -27 -2 -28 -1 -28 48 0 53 -3 57 -32 40z"/>
<path d="M2450 2828 c-33 -10 -34 -11 -12 -19 21 -8 22 -14 22 -99 0 -85 -1
-91 -22 -100 -17 -6 -5 -9 47 -9 52 0 64 3 48 9 -21 9 -23 16 -23 89 0 71 2
82 22 95 30 21 54 20 78 -4 17 -17 20 -33 20 -105 l0 -85 42 0 c41 0 42 0 20
16 -20 14 -22 24 -22 100 0 71 -3 87 -20 104 -28 28 -87 27 -117 -2 l-23 -21
0 21 c0 24 -8 25 -60 10z"/>
<path d="M2760 2828 c-33 -10 -34 -11 -12 -19 21 -8 22 -14 22 -99 0 -85 -1
-91 -22 -100 -17 -6 -5 -9 47 -9 52 0 64 3 48 9 -22 9 -23 15 -23 120 0 119 2
116 -60 98z"/>
<path d="M2870 2831 c0 -5 7 -11 15 -13 9 -2 36 -50 63 -112 26 -60 53 -111
60 -114 6 -2 17 9 22 24 32 83 95 204 106 204 8 0 14 5 14 10 0 6 -22 10 -50
10 -50 0 -67 -13 -30 -23 20 -5 20 -6 -4 -71 -14 -37 -30 -74 -35 -84 -9 -15
-11 -14 -19 8 -6 14 -20 47 -31 73 -25 58 -26 77 -6 77 8 0 15 5 15 10 0 6
-27 10 -60 10 -33 0 -60 -4 -60 -9z"/>
<path d="M3223 2820 c-41 -25 -53 -48 -53 -104 0 -83 39 -126 115 -126 38 0
95 24 95 40 0 13 -17 13 -25 0 -3 -5 -26 -10 -50 -10 -35 0 -48 5 -64 26 -12
15 -21 37 -21 50 0 22 4 23 83 26 l82 3 -2 35 c-3 71 -89 103 -160 60z m101
-22 c32 -45 22 -58 -44 -58 -51 0 -60 3 -60 18 0 32 29 62 60 62 18 0 34 -8
44 -22z"/>
<path d="M3447 2828 c-38 -10 -38 -11 -15 -22 21 -11 23 -18 23 -96 0 -80 -1
-85 -25 -97 -22 -11 -17 -13 50 -12 62 0 70 2 48 11 -27 9 -28 12 -28 79 0 56
4 73 20 89 24 24 33 25 50 5 17 -20 30 -9 30 26 0 24 -4 29 -25 29 -14 0 -34
-9 -45 -20 -11 -11 -22 -20 -25 -20 -3 0 -5 9 -5 20 0 22 1 22 -53 8z"/>
<path d="M3656 2819 c-30 -23 -35 -68 -11 -93 9 -9 35 -20 58 -26 66 -17 67
-18 67 -44 0 -29 -25 -46 -67 -46 -33 0 -53 16 -53 42 0 32 -18 19 -22 -17 -5
-40 3 -45 68 -45 74 0 113 30 114 87 0 36 -26 55 -92 67 -67 12 -71 76 -5 76
37 0 50 -8 62 -35 8 -19 9 -19 13 3 7 42 -4 52 -56 52 -35 0 -57 -6 -76 -21z"/>
<path d="M3870 2826 c-31 -11 -32 -13 -12 -18 21 -6 22 -12 22 -97 0 -86 -1
-92 -22 -101 -17 -6 -5 -9 47 -9 52 0 64 3 48 9 -22 9 -23 15 -23 120 0 120 1
118 -60 96z"/>
<path d="M4160 2831 c0 -5 6 -11 13 -14 8 -3 35 -57 61 -121 l47 -116 -23 -43
c-19 -33 -29 -42 -51 -42 -28 -1 -50 -21 -41 -37 9 -14 51 -9 72 10 12 9 51
87 87 172 37 85 75 162 86 172 10 9 19 19 19 22 0 10 -89 6 -95 -4 -3 -5 3
-10 14 -10 12 0 21 -3 21 -7 0 -21 -64 -163 -70 -156 -9 10 -60 140 -60 153 0
6 9 10 20 10 11 0 20 5 20 10 0 6 -27 10 -60 10 -33 0 -60 -4 -60 -9z"/>
<path d="M4610 2833 c-30 -11 -60 -47 -70 -83 -13 -50 -3 -95 30 -130 23 -25
36 -30 75 -30 84 0 137 48 139 126 1 50 -16 85 -54 107 -27 16 -89 21 -120 10z
m104 -46 c28 -37 29 -127 1 -157 -27 -30 -81 -24 -108 12 -28 37 -29 128 -2
158 27 30 81 24 109 -13z"/>
<path d="M3674 2326 c-42 -11 -59 -31 -26 -31 14 0 17 -11 20 -68 3 -62 1 -68
-15 -63 -58 17 -70 16 -122 -11 -73 -37 -95 -69 -95 -136 0 -93 49 -147 132
-147 30 0 45 7 68 31 l29 30 5 -28 c3 -15 9 -27 13 -25 4 1 27 2 52 2 25 0 45
5 45 10 0 6 -11 10 -25 10 l-25 0 0 214 c0 118 -3 216 -7 218 -5 2 -27 -1 -49
-6z m-34 -201 c29 -15 30 -18 30 -89 0 -66 -3 -76 -26 -100 -48 -48 -118 -29
-144 40 -21 54 -3 143 32 157 26 11 80 7 108 -8z"/>
<path d="M1999 2320 c-98 -29 -141 -135 -81 -200 22 -24 41 -33 97 -44 87 -16
113 -29 121 -63 16 -62 -38 -119 -111 -117 -55 1 -94 26 -102 64 -9 48 -23 34
-23 -23 l0 -54 53 -14 c56 -16 98 -9 165 25 83 43 103 168 34 208 -15 8 -58
21 -97 27 -82 14 -105 31 -105 77 0 46 8 63 41 79 59 31 132 8 144 -45 9 -41
25 -38 27 5 0 19 1 40 2 47 2 26 -110 45 -165 28z"/>
<path d="M2762 2258 c-16 -34 -55 -124 -87 -198 -67 -154 -70 -160 -97 -160
-11 0 -18 -5 -16 -11 4 -13 138 -16 139 -3 0 5 -8 11 -18 12 -32 7 -34 17 -12
70 l22 52 91 0 91 0 21 -54 c12 -30 19 -57 16 -60 -3 -4 -16 -6 -29 -6 -14 0
-23 -5 -21 -11 2 -7 34 -11 83 -11 49 0 81 4 83 11 2 6 -5 11 -15 11 -24 0
-25 2 -122 230 -43 101 -83 186 -90 188 -6 2 -24 -25 -39 -60z m79 -160 l19
-48 -75 0 c-41 0 -75 4 -75 9 0 5 12 35 26 67 14 33 30 70 36 84 9 24 10 23
29 -20 12 -25 29 -66 40 -92z"/>
<path d="M2293 2258 c-19 -9 -23 -19 -23 -58 0 -41 -3 -48 -27 -60 l-28 -14
28 -4 27 -3 0 -108 c0 -92 3 -110 18 -124 25 -22 75 -21 95 1 24 26 21 32 -12
26 -42 -9 -52 18 -49 119 l3 82 43 3 c28 2 42 8 42 17 0 9 -14 15 -42 17 l-43
3 3 58 c4 59 2 63 -35 45z"/>
<path d="M3220 2168 c-14 -5 -35 -19 -47 -30 l-23 -21 0 26 c0 31 2 30 -56 16
-48 -12 -57 -26 -21 -31 21 -3 22 -7 22 -113 0 -106 -1 -110 -22 -113 -13 -2
-23 -9 -23 -15 0 -8 23 -12 72 -10 73 1 100 13 56 23 -22 6 -23 11 -26 96 -3
85 -1 91 23 114 29 28 78 31 103 6 13 -13 18 -41 22 -128 l5 -111 48 0 c47 0
70 15 31 21 -21 3 -22 10 -26 112 -3 101 -5 112 -28 134 -29 28 -75 38 -110
24z"/>
<path d="M3990 2173 c-8 -3 -27 -17 -42 -31 l-28 -26 0 28 c0 25 -3 28 -26 22
-15 -4 -39 -10 -55 -13 -36 -7 -38 -23 -4 -23 l25 0 0 -115 0 -115 -26 0 c-14
0 -24 -5 -22 -11 2 -7 34 -11 83 -11 49 0 81 4 83 11 2 6 -9 11 -27 11 l-31 0
0 88 c0 63 4 94 16 110 18 25 46 29 68 7 21 -21 23 -20 29 22 8 45 -6 59 -43
46z"/>
<path d="M4161 2167 c-91 -29 -132 -123 -95 -216 16 -40 27 -50 76 -74 l57
-27 55 24 c34 15 56 31 56 41 0 14 -3 14 -30 0 -73 -38 -145 -4 -164 78 l-6
27 67 0 c38 0 85 3 106 6 33 6 37 10 37 36 0 47 -25 84 -70 102 -45 18 -43 18
-89 3z m83 -39 c9 -12 16 -34 16 -49 0 -22 -5 -27 -32 -32 -18 -2 -51 -2 -73
2 -35 6 -40 9 -37 31 9 63 93 95 126 48z"/>
<path d="M4555 2068 c-26 -62 -49 -115 -50 -117 -7 -7 -56 171 -51 185 3 8 15
14 26 14 11 0 20 5 20 10 0 6 -32 10 -75 10 -41 0 -75 -3 -75 -6 0 -3 9 -13
21 -23 13 -10 34 -61 59 -141 48 -159 57 -161 112 -30 21 52 43 98 47 103 4 4
26 -39 48 -95 23 -58 47 -104 55 -106 10 -2 22 17 38 60 39 107 88 208 104
214 34 13 13 24 -44 24 -33 0 -60 -4 -60 -10 0 -5 7 -10 15 -10 9 0 18 -7 22
-16 5 -15 -47 -184 -57 -184 -3 0 -25 52 -50 115 -24 63 -47 115 -50 115 -4 0
-28 -51 -55 -112z"/>
<path d="M4970 2170 c-41 -10 -80 -51 -80 -84 0 -39 31 -65 105 -89 56 -18 71
-26 73 -44 5 -32 -31 -63 -73 -63 -38 0 -85 36 -85 65 0 8 -5 15 -11 15 -6 0
-9 -19 -7 -46 3 -45 4 -47 44 -59 77 -23 184 38 184 105 0 38 -37 67 -100 81
-65 13 -80 24 -80 53 0 32 19 46 60 46 36 0 70 -23 70 -48 0 -7 5 -12 10 -12
12 0 14 67 3 73 -19 11 -81 14 -113 7z"/>
</g>
</svg>
